<?xml version="1.0" encoding="UTF-8"?>
<svg version="1.1" xmlns="http://www.w3.org/2000/svg" width="1024" height="1024">
<path d="M0 0 C5.60333243 0.00260963 11.2066636 0.00016322 16.80999613 -0.00138617 C26.19646363 -0.00318274 35.58292316 -0.00086793 44.96938944 0.00395441 C55.69353574 0.0094017 66.41766302 0.00762065 77.14180887 0.00212801 C86.49703707 -0.00246451 95.85225968 -0.00302445 105.20748866 -0.00043333 C110.73072423 0.00109502 116.25395098 0.00142138 121.77718592 -0.00196981 C142.52426442 -0.01282748 163.26928045 0.03330905 184.01267695 0.46167254 C185.82968158 0.4986668 187.64674995 0.5326643 189.46386933 0.56351113 C191.945393 0.6072666 194.42625591 0.66395522 196.90740824 0.72493219 C198.00794468 0.74163363 198.00794468 0.74163363 199.13071418 0.75867248 C204.15208356 0.90491026 204.15208356 0.90491026 206.38149881 3.1343255 C207.52381271 10.18483667 204.16814211 15.08421186 200.75649881 21.0718255 C199.87840555 22.65193415 199.87840555 22.65193415 198.98257303 24.26396418 C194.35645163 32.54212476 189.57743588 40.73303384 184.76479959 48.90385675 C180.2635347 56.55986495 175.92215989 64.29682299 171.63149881 72.0718255 C167.19129193 80.11210851 162.70298809 88.10850046 158.00845194 96.00297785 C154.2980478 102.24556472 150.7046721 108.55217686 147.11416483 114.86430597 C143.90479437 120.49604374 140.64965391 126.09844644 137.36416483 131.68608332 C130.77051999 142.90559228 124.41092532 154.23503252 118.16763163 165.65165949 C113.7627077 173.69638491 109.24670833 181.66621756 104.47842264 189.50273371 C102.35490929 193.06839931 101.38149881 194.88861781 101.38149881 199.1343255 C109.89828327 200.15726561 118.34968379 200.24420723 126.9110055 200.17892504 C129.29921697 200.16129626 131.68735951 200.1511631 134.07562113 200.14300776 C140.85700829 200.11874722 147.63830068 200.08281149 154.41958475 200.03837824 C158.58843368 200.01157799 162.75723087 199.9945522 166.92614985 199.98350954 C168.50737424 199.97731715 170.08858864 199.96733368 171.66976404 199.95343065 C173.87566345 199.93418097 176.08128836 199.92731491 178.28726053 199.92314386 C179.53981638 199.91568644 180.79237223 199.90822901 182.08288431 199.9005456 C185.31839139 200.12985295 187.51815843 200.6387528 190.38149881 202.1343255 C191.3387742 204.032763 191.3387742 204.032763 191.38149881 206.1343255 C187.98969347 213.14565119 180.92691347 218.78514047 175.44399881 224.1343255 C170.09646042 229.37467493 164.86448882 234.61057157 159.9925828 240.298388 C157.42898759 243.21977548 154.66011225 245.91942443 151.88149881 248.6343255 C147.78106879 252.68359462 143.85000256 256.78063002 140.11978006 261.17729425 C137.23818163 264.4215208 134.11426337 267.42084422 131.00649881 270.4468255 C128.94105939 272.56144205 127.01219683 274.69635428 125.08853006 276.93510675 C120.65339753 282.05515544 115.78997808 286.71370922 110.90298319 291.39799738 C110.21913553 292.06766535 109.53528788 292.73733332 108.83071756 293.42729425 C108.21543192 294.0205047 107.60014627 294.61371515 106.96621561 295.22490168 C105.15868802 297.40279002 104.37767752 299.50204832 103.38149881 302.1343255 C104.57309107 302.12988428 105.76468332 302.12544306 106.99238443 302.12086725 C118.21923407 302.08033278 129.44606887 302.05034665 140.67297506 302.03070116 C146.44490657 302.02026173 152.21677903 302.0060995 157.98867655 301.9834466 C163.55833692 301.96172409 169.12794048 301.94975808 174.69763994 301.94457102 C176.82311571 301.94087421 178.94858834 301.93365536 181.07403994 301.92286539 C184.04988574 301.90835848 187.02549641 301.90634725 190.00137186 301.90727472 C190.88106638 301.90008417 191.7607609 301.89289362 192.66711283 301.88548517 C198.11345153 301.9038662 202.34049238 302.09331907 206.38149881 306.1343255 C207.70787651 310.20044263 207.53669743 314.32197922 207.54263163 318.55546808 C207.54759653 319.40312235 207.55256144 320.25077662 207.55767679 321.12411737 C207.57227021 323.92570546 207.57909574 326.72723692 207.58462381 329.52885675 C207.59037761 331.47935217 207.59613532 333.42984757 207.60189676 335.38034296 C207.61239874 339.46997068 207.61824666 343.55957878 207.62173319 347.64921808 C207.62721603 352.88136903 207.65124302 358.1132595 207.67970514 363.34532881 C207.69835805 367.3748676 207.70353854 371.40434398 207.70506907 375.43392229 C207.70809015 377.36237433 207.71610028 379.2908254 207.72925425 381.21923494 C207.74637009 383.92135623 207.74442101 386.62284535 207.73794413 389.32499933 C207.74715891 390.11641321 207.75637369 390.90782709 207.76586771 391.72322321 C207.72782501 396.80742669 206.98741005 400.63424603 204.38149881 405.1343255 C199.39179024 409.37716993 195.62470407 409.6989645 189.37953043 409.59756708 C188.48363374 409.59901793 187.58773706 409.60046877 186.66469198 409.60196358 C183.6681445 409.60186601 180.67257539 409.57303418 177.67617655 409.54423761 C175.5258002 409.53815704 173.37541837 409.53380564 171.22503519 409.53105402 C165.3882734 409.51827793 159.55192618 409.48018471 153.71532178 409.43676686 C147.60915379 409.39478314 141.50290941 409.37327205 135.39665079 409.3488183 C125.14319561 409.30452123 114.8899334 409.24396335 104.63662577 409.17363214 C92.77829301 409.09247549 80.92004181 409.03619659 69.06151289 408.99342579 C57.65762418 408.95178686 46.25388277 408.89331756 34.85011339 408.82689333 C29.99497196 408.79886561 25.13985456 408.77662094 20.28466463 408.75897264 C14.56936056 408.73738189 8.85433608 408.70103366 3.13919306 408.65322351 C1.04015714 408.63801831 -1.05892245 408.62788342 -3.1580081 408.62315035 C-6.02014321 408.61585042 -8.88154585 408.5902715 -11.74351645 408.55996943 C-12.5769772 408.56208852 -13.41043795 408.56420762 -14.26915509 408.56639093 C-18.86346236 408.49516724 -21.89716461 408.11974672 -25.61850119 405.1343255 C-27.61850119 402.1343255 -27.61850119 402.1343255 -27.38510275 399.7412591 C-26.60692691 397.09496559 -25.6329519 394.86468237 -24.35287619 392.423388 C-23.64590597 391.06842218 -23.64590597 391.06842218 -22.92465353 389.68608332 C-22.41112326 388.72025324 -21.89759298 387.75442316 -21.36850119 386.7593255 C-20.83563498 385.74708918 -20.30276876 384.73485285 -19.75375509 383.69194269 C-15.43317699 375.5396708 -10.91743499 367.50521001 -6.34286642 359.49345636 C-2.9240176 353.49264038 0.37922887 347.44734648 3.56899881 341.3218255 C7.42156053 333.92447827 11.40833008 326.61661104 15.47915506 319.3374505 C17.75161167 315.27257647 20.00534795 311.19755147 22.25259256 307.1187005 C22.59375101 306.49961313 22.93490946 305.88052576 23.28640604 305.24267817 C25.03642984 302.06627874 26.78503991 298.88910749 28.53237772 295.7112298 C31.45313431 290.40432403 34.37981358 285.10323099 37.40884256 279.85698175 C37.83608622 279.11464289 38.26332987 278.37230402 38.7035203 277.60747004 C39.45975504 276.30063371 40.22301115 274.99782122 40.9950242 273.70024347 C42.87569632 270.44853094 43.38149881 269.03011003 43.38149881 265.1343255 C36.01383518 264.14319062 28.81307531 264.01909821 21.38540506 264.0718255 C20.15668177 264.07561213 18.92795847 264.07939875 17.66200113 264.08330011 C12.43947029 264.09954908 7.2170198 264.12771527 1.99453592 264.15483332 C-1.83350397 264.17299041 -5.66153097 264.18503754 -9.48959494 264.1968255 C-11.24003355 264.20927301 -11.24003355 264.20927301 -13.02583456 264.22197199 C-31.21582826 264.27603603 -31.21582826 264.27603603 -35.30600119 260.9468255 C-36.96116573 257.40004434 -36.53310944 255.90161979 -35.61850119 252.1343255 C-34.28671408 249.35209894 -34.28671408 249.35209894 -32.59115744 246.4937005 C-31.6580776 244.90211115 -31.6580776 244.90211115 -30.70614767 243.27836847 C-30.03784933 242.15833429 -29.36955099 241.03830011 -28.68100119 239.8843255 C-27.64102441 238.11772485 -26.60444586 236.34915962 -25.56804037 234.58046198 C-24.87864971 233.40441094 -24.18821212 232.22897296 -23.49672079 231.05415583 C-20.76892197 226.41531131 -18.13946475 221.72959191 -15.55600119 217.0093255 C-9.96596399 206.84433087 -4.06604291 196.86037947 1.79409647 186.84965754 C3.93915628 183.18042418 6.07466502 179.50597564 8.19399881 175.8218255 C8.79856913 174.77381769 9.40313944 173.72580988 10.02603006 172.64604425 C11.48137584 170.12178502 11.48137584 170.12178502 12.38149881 167.1343255 C13.3694659 165.79205176 14.3712538 164.45991322 15.38149881 163.1343255 C16.44477834 161.39236788 17.48159284 159.63411633 18.49868631 157.86479425 C19.09922831 156.82242609 19.6997703 155.78005793 20.31851053 154.70610285 C20.95804667 153.58929132 21.5975828 152.4724798 22.25649881 151.3218255 C22.9271086 150.15459822 23.59784598 148.98744423 24.26870584 147.82036066 C29.69594078 138.36900823 35.07769357 128.89192645 40.41274881 119.38823175 C42.31711116 116.000569 44.25238314 112.6348765 46.22524881 109.28666925 C46.65595682 108.54755304 47.08666483 107.80843683 47.53042459 107.04692316 C48.32084867 105.69303468 49.12064552 104.34455378 49.93179178 103.00297785 C51.94557512 99.579826 51.94557512 99.579826 52.10806131 95.70854425 C51.86829569 95.18905207 51.62853006 94.66955988 51.38149881 94.1343255 C47.09458562 93.31700174 43.05009254 93.0095958 38.6885972 93.00975275 C38.04109164 93.0083426 37.39358608 93.00693245 36.72645915 93.00547957 C34.57092273 93.00184857 32.41545302 93.00515348 30.25991678 93.00834894 C28.70889087 93.00695311 27.15786535 93.00505309 25.60684061 93.00268793 C22.27403186 92.99820177 18.9412354 92.99633509 15.60842371 92.99622583 C10.33923849 92.9950834 5.07012297 92.98223147 -0.19903708 92.96666193 C-1.53400329 92.96280265 -1.53400329 92.96280265 -2.89593852 92.9588654 C-4.71523815 92.95359938 -6.53453773 92.94831389 -8.35383725 92.94300938 C-20.61638624 92.90790804 -32.87884695 92.88135305 -45.14145041 92.88383722 C-53.4207263 92.88542425 -61.69976311 92.86943203 -69.9789623 92.8331306 C-74.35877002 92.81465274 -78.73817835 92.80534409 -83.11801672 92.81760645 C-87.23374945 92.82901926 -91.34876546 92.81739657 -95.46440268 92.78797197 C-96.97529316 92.78131744 -98.48624896 92.78322213 -99.9971137 92.79427004 C-102.05879347 92.80809658 -104.11803778 92.79130719 -106.17956686 92.76683283 C-107.33323311 92.76536627 -108.48689936 92.76389971 -109.67552519 92.76238871 C-112.61850119 92.1343255 -112.61850119 92.1343255 -115.00251913 89.73037577 C-118.1450004 84.68202805 -116.11485495 79.4217009 -114.91299582 73.8831048 C-114.03122957 70.15197114 -113.08807048 66.43912647 -112.12631369 62.7280755 C-111.77563201 61.35399494 -111.42553543 59.97976494 -111.0759902 58.60539484 C-110.34569382 55.74003111 -109.61074373 52.87591991 -108.87191916 50.01274347 C-107.93201082 46.37014111 -107.00022556 42.72552698 -106.07150602 39.08005762 C-105.17593038 35.56617374 -104.27626708 32.05334024 -103.37631369 28.5405755 C-103.20865625 27.88478006 -103.04099882 27.22898462 -102.86826086 26.55331659 C-101.80667389 22.4077387 -100.71837962 18.269887 -99.61850119 14.1343255 C-99.36775839 13.14070002 -99.11701559 12.14707453 -98.85867453 11.12333918 C-98.61941244 10.23171076 -98.38015036 9.34008234 -98.13363791 8.42143488 C-97.93551504 7.65810846 -97.73739218 6.89478205 -97.53326559 6.10832453 C-96.27305531 3.38887692 -95.2576468 2.61957284 -92.61850119 1.1343255 C-89.63980922 0.65209196 -86.67754622 0.64839561 -83.66461325 0.62727594 C-82.76108091 0.60964221 -81.85754857 0.59200847 -80.92663646 0.57384038 C-77.92536496 0.5195434 -74.92428831 0.48694697 -71.92270041 0.45512629 C-69.79725389 0.42257792 -67.67182081 0.38914123 -65.5464015 0.35486269 C-43.69913731 0.02613804 -21.84929796 -0.01346479 0 0 Z " fill="#FE5316" transform="translate(580.6185011863708,307.865674495697)"/>
<path d="M0 0 C1.07712502 -0.00262848 1.07712502 -0.00262848 2.17601013 -0.00531006 C4.52963744 -0.0096803 6.88318844 -0.00680706 9.23681641 -0.00341797 C10.88676976 -0.00409254 12.53672301 -0.00506385 14.18667603 -0.00631714 C17.63796946 -0.0077877 21.08923694 -0.00566074 24.54052734 -0.00097656 C28.94388085 0.00471134 33.34717327 0.00144358 37.75052452 -0.00454903 C41.15648856 -0.00817963 44.56243837 -0.00700445 47.96840286 -0.00442123 C49.59095899 -0.0037584 51.21351645 -0.00455765 52.83607101 -0.00690079 C57.71378716 -0.01239844 62.58665581 0.02683918 67.46337891 0.12939453 C68.41351868 0.14778381 69.36365845 0.1661731 70.34259033 0.18511963 C74.08645326 0.40609449 76.17095128 0.89981544 79.14726353 3.23645878 C82.01903283 6.8234321 82.14756805 8.65874071 82.26878357 13.2205658 C82.292891 13.95098333 82.31699843 14.68140087 82.34183639 15.43395227 C82.41369356 17.99944442 82.44179613 20.56299818 82.46337891 23.12939453 C82.47551902 24.09294271 82.48765913 25.05649088 82.50016713 26.04923749 C82.59570152 34.2565313 82.58877601 42.46293714 82.5769043 50.6706543 C82.57606209 53.42189562 82.57673759 56.17313611 82.5773468 58.92437744 C82.57786761 64.81507896 82.57476748 70.70576927 82.56910896 76.59646797 C82.56093338 85.1131127 82.55837258 93.6297521 82.55712097 102.14640033 C82.55493991 115.9687784 82.54830561 129.79115054 82.53881836 143.61352539 C82.52961968 157.02954072 82.5225509 170.44555442 82.51831055 183.86157227 C82.51804782 184.69047773 82.5177851 185.5193832 82.51751442 186.37340701 C82.51620925 190.5323621 82.51494557 194.69131719 82.51370251 198.8502723 C82.50335937 233.27665065 82.48576696 267.70302195 82.46337891 302.12939453 C83.2454474 302.12662915 84.02751589 302.12386377 84.83328342 302.1210146 C103.87112044 302.05473402 122.9089344 302.00510384 141.94686222 301.97395802 C151.15350045 301.95849542 160.36006162 301.9374175 169.56665039 301.90307617 C177.59200656 301.87315523 185.61730691 301.85381511 193.6427173 301.84712905 C197.89131261 301.84322136 202.13974823 301.83405039 206.38829231 301.81220436 C210.38965561 301.79179661 214.39079389 301.78556937 218.39220428 301.79007149 C219.85831616 301.7892482 221.32443578 301.78330803 222.79050255 301.77177811 C237.01707189 301.66540925 237.01707189 301.66540925 242.46337891 305.12939453 C244.22803843 310.42782419 243.08229216 314.82329608 241.42822266 319.98095703 C241.0833783 321.11547806 241.0833783 321.11547806 240.73156738 322.2729187 C239.96837097 324.77118952 239.18488315 327.26258296 238.40087891 329.75439453 C237.86006057 331.50858656 237.32045143 333.2631518 236.78198242 335.01806641 C235.63227992 338.75483542 234.47330712 342.48855528 233.30712891 346.22021484 C231.72831659 351.27296216 230.16545562 356.33048085 228.60765076 361.38973999 C227.04287272 366.47090767 225.47266422 371.5503906 223.90087891 376.62939453 C223.60019501 377.60128723 223.29951111 378.57317993 222.98971558 379.57452393 C222.12828216 382.35411544 221.26327191 385.13256617 220.39697266 387.91064453 C220.14427612 388.72677216 219.89157959 389.54289978 219.63122559 390.38375854 C219.15363714 391.91021509 218.6667106 393.43379077 218.16915894 394.95385742 C217.69401586 396.41846586 217.24642181 397.89226678 216.82522583 399.37329102 C215.74651058 402.82541559 214.97184344 404.7886241 211.92459869 406.83087254 C207.59173581 408.45640287 203.97807603 408.54995097 199.39221191 408.51707458 C198.48885369 408.52246012 197.58549546 408.52784566 196.65476274 408.5333944 C193.63314655 408.54768162 190.61196797 408.54056832 187.59033203 408.53344727 C185.42186633 408.53915037 183.25340364 408.5461144 181.08494568 408.554245 C175.19867896 408.57219669 169.31256114 408.57100435 163.42627525 408.56530261 C158.51303485 408.56221409 153.59982318 408.56829938 148.68658686 408.57434136 C137.09734873 408.5883912 125.50818431 408.58682106 113.91894531 408.57543945 C101.95939907 408.56395379 90.00007696 408.57804053 78.04056025 408.60483593 C67.77374773 408.62697829 57.50700565 408.63363371 47.24017096 408.62775952 C41.10761492 408.62438573 34.97520261 408.62683328 28.84266663 408.64401054 C23.07732367 408.65945447 17.31231341 408.65555227 11.54698372 408.6367054 C9.43059923 408.63301266 7.31419023 408.63614782 5.19782829 408.64659119 C2.30968191 408.6597555 -0.57735568 408.64829382 -3.4654541 408.63059998 C-4.30378391 408.64020498 -5.14211371 408.64980999 -6.00584745 408.65970606 C-11.83597083 408.58616763 -15.3179738 407.34804182 -19.53662109 403.12939453 C-19.57742892 401.12981089 -19.57916466 399.12894199 -19.53662109 397.12939453 C-20.19662109 396.79939453 -20.85662109 396.46939453 -21.53662109 396.12939453 C-21.43031545 394.86627483 -21.43031545 394.86627483 -21.32186222 393.57763755 C-20.63991893 384.89782453 -20.39856006 376.3094767 -20.4230957 367.60159302 C-20.42337653 366.1933851 -20.42321116 364.78517705 -20.42264462 363.37696922 C-20.42235202 359.54822543 -20.42824122 355.71951338 -20.43521452 351.89077687 C-20.44163731 347.74449805 -20.44216159 343.59821785 -20.44338989 339.45193481 C-20.44626714 332.274573 -20.4526919 325.09722158 -20.4614563 317.91986465 C-20.47407416 307.50799321 -20.48010237 297.09612555 -20.48438966 286.68424772 C-20.49144825 269.74229494 -20.50223865 252.80034695 -20.51611328 235.85839844 C-20.51694109 234.84593791 -20.51776891 233.83347738 -20.5186218 232.79033624 C-20.52535776 224.58714195 -20.5322761 216.38394782 -20.53922462 208.18075371 C-20.54527301 201.03619264 -20.55125568 193.89163153 -20.55712891 186.74707031 C-20.55795703 185.74131486 -20.55878516 184.73555942 -20.55963838 183.69932653 C-20.57339653 166.83894518 -20.58311801 149.97856375 -20.59003925 133.11817825 C-20.59448441 122.75442533 -20.60244842 112.39068704 -20.61518407 102.02694093 C-20.62370806 94.89990966 -20.62852278 87.7728817 -20.63060927 80.64584567 C-20.63193412 76.55478732 -20.63480652 72.46374789 -20.64236832 68.37269592 C-20.65879008 59.00496 -20.63645838 49.63859903 -20.55364466 40.27119476 C-20.53597166 38.04768718 -20.52487089 35.82420392 -20.51426315 33.60065222 C-20.49341611 29.86166568 -20.44466165 26.12391805 -20.37641037 22.38550721 C-20.35442145 20.98264657 -20.34066219 19.57962896 -20.33576977 18.17660452 C-20.32720186 16.24669315 -20.28446853 14.3170249 -20.24021912 12.38760185 C-20.22513022 11.29585557 -20.21004133 10.20410928 -20.1944952 9.07927978 C-19.31924134 5.15467105 -17.62158572 3.62890586 -14.53662109 1.12939453 C-9.71937193 -0.03029486 -4.94132205 0.00304827 0 0 Z " fill="#FE5216" transform="translate(254.53662109375,307.87060546875)"/>
<path d="M0 0 C0.66 0 1.32 0 2 0 C0.43629765 4.173001 -1.5378581 8.07166792 -3.6328125 11.99609375 C-3.98834198 12.66608902 -4.34387146 13.33608429 -4.71017456 14.02638245 C-5.4637407 15.44492705 -6.2185799 16.86279602 -6.97460938 18.2800293 C-8.10379004 20.39772233 -9.22799353 22.51799731 -10.3515625 24.63867188 C-11.09063514 26.02891744 -11.83021702 27.41889242 -12.5703125 28.80859375 C-12.93529846 29.49488861 -13.30028442 30.18118347 -13.67633057 30.88827515 C-15.48801251 34.27011811 -17.34182422 37.61337956 -19.30371094 40.91064453 C-19.67164764 41.53286392 -20.03958435 42.15508331 -20.41867065 42.79615784 C-21.42350713 44.48240182 -22.44339646 46.15965016 -23.46435547 47.83618164 C-25.13736188 51.28300042 -25.65609626 54.20300369 -26 58 C-22.04997132 60.68524458 -17.74380863 60.2781598 -13.16261292 60.25396729 C-12.26025797 60.25708727 -11.35790303 60.26020725 -10.428204 60.26342177 C-7.39811489 60.27141261 -4.36822544 60.26507383 -1.33813477 60.25878906 C0.83165606 60.26149846 3.00144597 60.2650591 5.17123413 60.26940918 C11.06992805 60.27854208 16.96855217 60.27498505 22.86724734 60.26865101 C29.03487766 60.26359505 35.2025019 60.2682814 41.37013245 60.27142334 C51.72959468 60.27506443 62.08902842 60.27026041 72.44848633 60.26074219 C84.43068016 60.24986024 96.41277592 60.25338076 108.39497036 60.264395 C118.67530476 60.2734672 128.95561866 60.27475338 139.23595577 60.26951766 C145.37908581 60.26639723 151.52218383 60.26599058 157.66531181 60.27259064 C163.44121236 60.27836237 169.21702506 60.27437027 174.99291611 60.26280212 C177.11455578 60.26015451 179.23620283 60.26092236 181.35783958 60.26532745 C184.25053643 60.27078031 187.14295051 60.26395175 190.03562927 60.25396729 C190.87823616 60.25842873 191.72084305 60.26289017 192.58898348 60.26748681 C196.84761642 60.23891311 200.11489592 59.97112085 204 58 C201.7421987 61.56494943 200.03018596 62.79194187 196 64 C193.0498349 64.27478565 190.11724218 64.25008763 187.15625 64.22273254 C186.26529129 64.22247454 185.37433258 64.22221653 184.45637512 64.22195071 C181.47081072 64.21855872 178.48551043 64.20070553 175.5 64.18286133 C173.35962111 64.17734608 171.21923989 64.17267736 169.07885742 64.16879272 C163.26489093 64.15543277 157.45105075 64.12910086 151.637146 64.09965348 C146.78601863 64.07614942 141.934877 64.05869042 137.08372498 64.04115504 C125.64170085 63.99959714 114.19975966 63.94729262 102.7578125 63.88842773 C90.94663336 63.82785764 79.13548853 63.78563837 67.32420349 63.75240308 C57.18817024 63.72322026 47.05222741 63.6825428 36.91627502 63.63263911 C30.86036011 63.60294875 24.80450804 63.57768745 18.74853516 63.56351662 C13.05542891 63.54970455 7.36257211 63.5215635 1.66958618 63.48231125 C-0.42139383 63.47030474 -2.51241012 63.46339266 -4.60342407 63.46190834 C-7.45464387 63.45908159 -10.30515887 63.43797135 -13.15625 63.41218567 C-14.40162788 63.41741067 -14.40162788 63.41741067 -15.67216492 63.42274123 C-20.2614087 63.35871695 -23.28206097 62.98139484 -27 60 C-29 57 -29 57 -28.76660156 54.60693359 C-27.98842572 51.96064008 -27.01445072 49.73035687 -25.734375 47.2890625 C-25.26249756 46.38470459 -24.79062012 45.48034668 -24.30444336 44.54858398 C-23.79147705 43.58380127 -23.27851074 42.61901855 -22.75 41.625 C-22.22220947 40.62218994 -21.69441895 39.61937988 -21.15063477 38.58618164 C-16.68026784 30.15032548 -12.02174753 21.82449503 -7.27832031 13.53955078 C-4.72469797 9.07908552 -2.22773571 4.63276527 0 0 Z " fill="#FD3B0E" transform="translate(582,653)"/>
<path d="M0 0 C0.81686279 0.03875244 1.63372559 0.07750488 2.4753418 0.11743164 C5.97549451 1.20477567 7.48923262 3.02397626 9.80078125 5.83984375 C10.34502306 8.56927253 10.58465367 10.70454502 10.60519409 13.43632507 C10.6292746 14.17950224 10.6533551 14.9226794 10.67816532 15.68837708 C10.7464819 18.07250575 10.77727657 20.45488317 10.80078125 22.83984375 C10.81333277 23.60082438 10.82588429 24.36180501 10.83881617 25.14584565 C10.932444 30.86290161 10.93720861 36.57846308 10.93017578 42.29614258 C10.93153474 44.18063389 10.93331743 46.06512493 10.93548584 47.94961548 C10.93999981 53.01330934 10.93829616 58.07698257 10.93510675 63.14067674 C10.93255354 68.46680645 10.9349287 73.79293454 10.93649292 79.11906433 C10.93830524 88.05325636 10.93593217 96.98744009 10.93115234 105.92163086 C10.92570319 116.22538091 10.92748091 126.52911119 10.93297875 136.83286077 C10.9375267 145.71484795 10.93815245 154.5968292 10.93554008 163.47881716 C10.93398763 168.76850788 10.93375527 174.05818931 10.93707657 179.34787941 C10.93998009 184.31794912 10.93793427 189.28799347 10.93218231 194.25806046 C10.93086833 196.07361115 10.93122547 197.88916401 10.93344498 199.70471382 C10.94390517 209.13548511 10.82495646 218.45049185 9.80078125 227.83984375 C9.47078125 227.83984375 9.14078125 227.83984375 8.80078125 227.83984375 C8.7974711 226.70970982 8.79416096 225.57957588 8.7907505 224.41519547 C8.70982669 196.94134483 8.61753283 169.46755042 8.51325417 141.99377823 C8.46309058 128.70777612 8.41664812 115.42178564 8.37890625 102.13574219 C8.34600859 90.55827692 8.30618973 78.98085992 8.25799119 67.40344787 C8.23270408 61.27092296 8.21092932 55.13843015 8.19743729 49.005867 C8.18463704 43.23738521 8.16260464 37.46901339 8.13339806 31.70059204 C8.12430633 29.58015886 8.11862835 27.45970796 8.11656761 25.33925629 C8.11325635 22.45034918 8.09780966 19.56175606 8.07925415 16.6729126 C8.08118888 15.82855534 8.08312362 14.98419808 8.08511698 14.11425424 C8.03750967 8.67797837 8.03750967 8.67797837 5.80078125 3.83984375 C4.48078125 3.83984375 3.16078125 3.83984375 1.80078125 3.83984375 C-7.86588542 3.83984375 -17.53255208 3.83984375 -27.19921875 3.83984375 C-27.19921875 3.50984375 -27.19921875 3.17984375 -27.19921875 2.83984375 C-30.49921875 2.50984375 -33.79921875 2.17984375 -37.19921875 1.83984375 C-37.19921875 1.50984375 -37.19921875 1.17984375 -37.19921875 0.83984375 C-32.98605879 0.67002348 -28.77266683 0.50974334 -24.55883789 0.35766602 C-23.13035725 0.30484258 -21.70196457 0.24957382 -20.27368164 0.19165039 C-13.51900927 -0.08081096 -6.75658438 -0.32552287 0 0 Z " fill="#FD310F" transform="translate(326.19921875,308.16015625)"/>
<path d="M0 0 C0 0.33 0 0.66 0 1 C-0.80630859 1.02505615 -1.61261719 1.0501123 -2.44335938 1.07592773 C-6.12903875 1.1926268 -9.81450852 1.31501591 -13.5 1.4375 C-15.40265625 1.49647461 -15.40265625 1.49647461 -17.34375 1.55664062 C-24.70893663 1.75864421 -24.70893663 1.75864421 -32.0234375 2.55859375 C-38.01333254 3.41144375 -44.10296474 2.86777256 -50.125 2.625 C-51.4811775 2.57495663 -52.83737937 2.52556962 -54.19360352 2.47680664 C-57.01769343 2.37460999 -59.84163873 2.26923161 -62.66552734 2.16162109 C-69.08570563 1.91918942 -75.50708864 1.71295482 -81.92840576 1.50335693 C-85.12810885 1.39847254 -88.32772383 1.29098091 -91.52734375 1.18359375 C-92.58687256 1.14806396 -93.64640137 1.11253418 -94.73803711 1.07592773 C-95.48448486 1.05087158 -96.23093262 1.02581543 -97 1 C-97 0.67 -97 0.34 -97 0 C-64.63282023 -1.12766047 -32.37279639 -0.82174142 0 0 Z " fill="#F83007" transform="translate(589,309)"/>
<path d="M0 0 C0.33 0.66 0.66 1.32 1 2 C-0.66978403 5.33501823 -2.55617733 8.51617909 -4.43359375 11.73828125 C-5.9521446 14.90035098 -6.36685201 16.56961189 -6 20 C-1.83934485 21.98774856 1.58825512 22.27062965 6.17700195 22.31884766 C6.87998917 22.32889328 7.58297638 22.3389389 8.30726624 22.34928894 C10.61759669 22.38003808 12.92781171 22.39713272 15.23828125 22.4140625 C16.84540291 22.43278084 18.45251481 22.45235475 20.05961609 22.4727478 C24.27961465 22.52400481 28.49964505 22.56366484 32.7197876 22.60089111 C37.03006831 22.64097117 41.3402173 22.69204523 45.65039062 22.7421875 C54.10017033 22.8388706 62.55001539 22.92329962 71 23 C71 23.33 71 23.66 71 24 C63.63932779 24.98142296 56.42438071 25.14566192 49.00390625 25.1328125 C47.1608213 25.13424759 47.1608213 25.13424759 45.28050232 25.13571167 C42.69277902 25.13638945 40.10505398 25.1345633 37.51733398 25.13037109 C33.57857402 25.12502183 29.63992831 25.13032746 25.70117188 25.13671875 C23.17708308 25.13605781 20.65299436 25.13477631 18.12890625 25.1328125 C16.96194717 25.13483673 15.7949881 25.13686096 14.59266663 25.13894653 C-3.6643403 25.08716487 -3.6643403 25.08716487 -7.6875 21.8125 C-9.36001118 18.22854747 -8.97842933 16.80855905 -8 13 C-6.70976871 10.60502522 -5.41996067 8.38837691 -3.9375 6.125 C-3.56044922 5.53203125 -3.18339844 4.9390625 -2.79492188 4.328125 C-1.87215204 2.87972678 -0.93729737 1.43903969 0 0 Z " fill="#FC2807" transform="translate(553,547)"/>
<path d="M0 0 C0.495 0.99 0.495 0.99 1 2 C-0.13647461 4.48339844 -0.13647461 4.48339844 -1.90234375 7.609375 C-2.54623047 8.75792969 -3.19011719 9.90648437 -3.85351562 11.08984375 C-4.54801629 12.30998737 -5.24267821 13.53003922 -5.9375 14.75 C-6.59772947 15.92276964 -7.25724231 17.09594303 -7.91601562 18.26953125 C-9.93153997 21.85348394 -11.96415835 25.42755931 -14 29 C-14.33019135 29.58022919 -14.66038269 30.16045837 -15.00057983 30.75827026 C-18.37082766 36.6794465 -21.75710301 42.59083572 -25.18037415 48.48153687 C-26.58530756 50.90043701 -27.98521838 53.32222417 -29.38452148 55.74438477 C-30.09664453 56.97396518 -30.81123261 58.20212072 -31.52807617 59.42895508 C-32.586535 61.24185998 -33.63586949 63.05978183 -34.68359375 64.87890625 C-35.29775146 65.9366626 -35.91190918 66.99441895 -36.54467773 68.08422852 C-37.90001981 70.79968739 -38.58686272 73.01155994 -39 76 C-39.66 75.67 -40.32 75.34 -41 75 C-40.41763647 71.36364177 -39.4405582 68.58603968 -37.6640625 65.3671875 C-37.18259766 64.48861084 -36.70113281 63.61003418 -36.20507812 62.70483398 C-35.68365234 61.77098877 -35.16222656 60.83714355 -34.625 59.875 C-34.08552734 58.89797119 -33.54605469 57.92094238 -32.99023438 56.91430664 C-28.6911737 49.16028449 -24.27634782 41.47577564 -19.8046875 33.8203125 C-16.19973303 27.64442252 -12.67151541 21.42465377 -9.14648438 15.20288086 C-6.21781872 10.05505606 -3.1845533 4.99376137 0 0 Z " fill="#FC340B" transform="translate(720,432)"/>
<path d="M0 0 C0 0.66 0 1.32 0 2 C-4.46795979 3.19379672 -8.63739317 2.87368513 -13.1875 2.5 C-19.61569824 2.03674997 -25.59436134 2.08490876 -32 3 C-32 2.67 -32 2.34 -32 2 C-42.89 1.67 -53.78 1.34 -65 1 C-65 0.67 -65 0.34 -65 0 C-21.00410337 -1.40027356 -21.00410337 -1.40027356 0 0 Z " fill="#F72F07" transform="translate(720,309)"/>
<path d="M0 0 C0 0.66 0 1.32 0 2 C-9.57 2 -19.14 2 -29 2 C-29 1.67 -29 1.34 -29 1 C-32.3 0.67 -35.6 0.34 -39 0 C-39 -0.33 -39 -0.66 -39 -1 C-34.7321081 -1.1939254 -30.46391863 -1.37236084 -26.19482422 -1.53710938 C-24.74575896 -1.59513646 -23.29685012 -1.6572297 -21.84814453 -1.72363281 C-7.02843217 -2.39772035 -7.02843217 -2.39772035 0 0 Z " fill="#FA440D" transform="translate(328,310)"/>
<path d="M0 0 C5.80239614 -0.04934656 11.60467081 -0.08569402 17.40722656 -0.10986328 C19.38218309 -0.11993627 21.35712466 -0.13359521 23.33203125 -0.15087891 C26.16670418 -0.17507039 29.00118038 -0.18646991 31.8359375 -0.1953125 C32.72243988 -0.20563507 33.60894226 -0.21595764 34.52230835 -0.22659302 C36.68285952 -0.2269907 38.84293718 -0.12272534 41 0 C43 2 43 2 43.40625 5.09765625 C42.88919075 10.06440813 41.06264164 13.23184337 38.5 17.4375 C38.07074219 18.16904297 37.64148438 18.90058594 37.19921875 19.65429688 C36.14632537 21.44421563 35.07499718 23.22326854 34 25 C33.505 23.515 33.505 23.515 33 22 C34.60208913 18.98124873 36.34653254 16.13936942 38.1953125 13.26953125 C39.95722086 10.39256901 41.02328063 8.53690958 40.875 5.1171875 C40.19915906 2.82632909 40.19915906 2.82632909 38 2 C35.15791974 1.84293669 32.33662693 1.7415043 29.4921875 1.68359375 C28.65156769 1.66281265 27.81094788 1.64203156 26.94485474 1.62062073 C24.25498765 1.55514561 21.56502157 1.4962498 18.875 1.4375 C17.05337511 1.39431284 15.23176029 1.35069848 13.41015625 1.30664062 C8.94020606 1.19946632 4.47015614 1.09819315 0 1 C0 0.67 0 0.34 0 0 Z " fill="#F62807" transform="translate(744,309)"/>
<path d="M0 0 C-3.42067499 0.78186857 -6.50326134 1 -10 1 C-10.99 1.33 -11.98 1.66 -13 2 C-13.98964237 4.96892711 -14.15273727 7.01149908 -14.20532227 10.11401367 C-14.22526749 11.15486618 -14.24521271 12.19571869 -14.26576233 13.26811218 C-14.28247482 14.39006485 -14.29918732 15.51201752 -14.31640625 16.66796875 C-14.33718735 17.81791824 -14.35796844 18.96786774 -14.37937927 20.15266418 C-14.44483342 23.83088125 -14.50374074 27.50917048 -14.5625 31.1875 C-14.60568913 33.67904396 -14.64930355 36.17058059 -14.69335938 38.66210938 C-14.80051061 44.77466301 -14.90228483 50.88728864 -15 57 C-15.33 57 -15.66 57 -16 57 C-16.87446073 45.05352117 -17.15140685 33.12922195 -16.91378784 21.15551758 C-16.88801358 19.7231904 -16.8706441 18.29068634 -16.86184692 16.8581543 C-16.84643829 14.82078396 -16.79851503 12.78660055 -16.7421875 10.75 C-16.7201123 9.56921875 -16.69803711 8.3884375 -16.67529297 7.171875 C-15.80508212 3.0844638 -14.2287987 1.57785498 -11 -1 C-6.6732642 -2.13861468 -3.79114904 -2.57798134 0 0 Z " fill="#FB2406" transform="translate(251,310)"/>
<path d="M0 0 C0.33 0.66 0.66 1.32 1 2 C0.07543945 4.15136719 0.07543945 4.15136719 -1.38671875 6.796875 C-1.91330078 7.7559375 -2.43988281 8.715 -2.98242188 9.703125 C-3.82643555 11.21132813 -3.82643555 11.21132813 -4.6875 12.75 C-5.23083984 13.74 -5.77417969 14.73 -6.33398438 15.75 C-9.04116152 20.6471427 -11.8554233 25.36803173 -15 30 C-16.10708002 31.94500755 -17.19183012 33.90295612 -18.25 35.875 C-18.77078125 36.84179688 -19.2915625 37.80859375 -19.828125 38.8046875 C-20.21484375 39.52914062 -20.6015625 40.25359375 -21 41 C-22 38 -22 38 -20.95532227 35.57080078 C-20.41447998 34.62188965 -19.8736377 33.67297852 -19.31640625 32.6953125 C-18.72166504 31.64206787 -18.12692383 30.58882324 -17.51416016 29.50366211 C-16.8701123 28.38870361 -16.22606445 27.27374512 -15.5625 26.125 C-14.92103027 24.99779541 -14.27956055 23.87059082 -13.61865234 22.70922852 C-9.23547005 15.04170108 -4.76210309 7.43893744 0 0 Z " fill="#FC360B" transform="translate(624,423)"/>
<path d="M0 0 C0.33 0.66 0.66 1.32 1 2 C-0.66978403 5.33501823 -2.55617733 8.51617909 -4.43359375 11.73828125 C-5.9521446 14.90035098 -6.36685201 16.56961189 -6 20 C-3.525 20.99 -3.525 20.99 -1 22 C-2.98 22.99 -2.98 22.99 -5 24 C-7.0625 21.875 -7.0625 21.875 -9 19 C-8.76851672 13.90736775 -6.66476149 10.28890183 -3.9375 6.125 C-3.56044922 5.53203125 -3.18339844 4.9390625 -2.79492188 4.328125 C-1.87215204 2.87972678 -0.93729737 1.43903969 0 0 Z " fill="#FC3B10" transform="translate(553,547)"/>
<path d="M0 0 C0.80244141 -0.01224609 1.60488281 -0.02449219 2.43164062 -0.03710938 C9.6666405 -0.05512182 9.6666405 -0.05512182 12.9375 2.1875 C7.27758884 2.9896416 1.77645867 3.36998776 -3.9375 3.375 C-4.69546875 3.38724609 -5.4534375 3.39949219 -6.234375 3.41210938 C-8.17851857 3.41729837 -10.12225009 3.31059112 -12.0625 3.1875 C-12.7225 2.5275 -13.3825 1.8675 -14.0625 1.1875 C-9.3728965 0.00325669 -4.80358038 0.00387698 0 0 Z " fill="#FA3C0F" transform="translate(728.0625,507.8125)"/>
<path d="M0 0 C11.28845091 -0.3945478 11.28845091 -0.3945478 15 2 C16.0625 3.75 16.0625 3.75 16 6 C14.1875 9.25 14.1875 9.25 12 12 C11.34 12 10.68 12 10 12 C10.309375 11.4225 10.61875 10.845 10.9375 10.25 C11.92583364 8.15705816 12.5168613 6.25464725 13 4 C10.29816945 2.64908472 7.88191794 2.66141942 4.875 2.4375 C3.23144531 2.31181641 3.23144531 2.31181641 1.5546875 2.18359375 C0.71164062 2.12300781 -0.13140625 2.06242187 -1 2 C-0.67 1.34 -0.34 0.68 0 0 Z " fill="#F9360F" transform="translate(756,508)"/>
<path d="M0 0 C1.34384766 0.07250977 1.34384766 0.07250977 2.71484375 0.14648438 C3.65199219 0.20255859 4.58914063 0.25863281 5.5546875 0.31640625 C6.97201172 0.3947168 6.97201172 0.3947168 8.41796875 0.47460938 C10.7555294 0.60447386 13.09268295 0.73944495 15.4296875 0.87890625 C12.51144506 2.54564946 10.45374371 3.12210705 7.1015625 3.07421875 C6.30234375 3.06777344 5.503125 3.06132812 4.6796875 3.0546875 C3.8546875 3.03792969 3.0296875 3.02117187 2.1796875 3.00390625 C1.33921875 2.99488281 0.49875 2.98585938 -0.3671875 2.9765625 C-2.43501854 2.95306442 -4.50270245 2.91719533 -6.5703125 2.87890625 C-6.5703125 2.21890625 -6.5703125 1.55890625 -6.5703125 0.87890625 C-4.11781157 -0.34734422 -2.72720815 -0.1553473 0 0 Z " fill="#F8390B" transform="translate(727.5703125,308.12109375)"/>
<path d="M0 0 C0.66022156 0.02361099 1.32044312 0.04722198 2.00067139 0.07154846 C4.099644 0.14783435 6.19821449 0.23200778 8.296875 0.31640625 C9.72393897 0.36966215 11.15102228 0.42240229 12.578125 0.47460938 C16.06795233 0.60340124 19.55746298 0.73926644 23.046875 0.87890625 C23.046875 1.20890625 23.046875 1.53890625 23.046875 1.87890625 C18.68738122 2.0713767 14.32760605 2.25006426 9.96704102 2.41601562 C8.48381422 2.474404 7.00073045 2.53655218 5.51782227 2.60253906 C3.38584435 2.69675436 1.25371719 2.777422 -0.87890625 2.85546875 C-2.80343628 2.934021 -2.80343628 2.934021 -4.7668457 3.01416016 C-7.953125 2.87890625 -7.953125 2.87890625 -10.953125 0.87890625 C-7.25494167 -0.32017721 -3.8609465 -0.14723949 0 0 Z " fill="#F52304" transform="translate(605.953125,308.12109375)"/>
<path d="M0 0 C1.89551022 -0.05441656 3.7914792 -0.09298035 5.6875 -0.125 C6.74324219 -0.14820313 7.79898438 -0.17140625 8.88671875 -0.1953125 C12.05996204 0.00376173 14.18373186 0.55163353 17 2 C18.3125 4.125 18.3125 4.125 19 6 C17 5 15 4 13 3 C10.62876754 2.76970044 8.25258057 2.58880058 5.875 2.4375 C4.59367188 2.35371094 3.31234375 2.26992188 1.9921875 2.18359375 C0.51105469 2.09271484 0.51105469 2.09271484 -1 2 C-0.67 1.34 -0.34 0.68 0 0 Z " fill="#FA370E" transform="translate(768,610)"/>
<path d="M0 0 C0 0.33 0 0.66 0 1 C-2.68711024 1.19647038 -5.37428331 1.38239615 -8.0625 1.5625 C-8.81466797 1.61857422 -9.56683594 1.67464844 -10.34179688 1.73242188 C-15.07859502 2.04000617 -19.32542212 1.83807173 -24 1 C-24 0.67 -24 0.34 -24 0 C-15.88303369 -1.28162626 -8.14684214 -0.6976874 0 0 Z " fill="#F62805" transform="translate(654,309)"/>
<path d="M0 0 C-3.42067499 0.78186857 -6.50326134 1 -10 1 C-13.11332248 1.66868314 -13.11332248 1.66868314 -14.1875 4.0625 C-14.455625 4.701875 -14.72375 5.34125 -15 6 C-15.33 5.34 -15.66 4.68 -16 4 C-13.24770521 0.74728797 -11.61239971 -0.83884218 -7.4375 -1.9375 C-4.1404918 -1.9974456 -2.67792794 -1.820991 0 0 Z " fill="#F7360E" transform="translate(251,310)"/>
<path d="M0 0 C0 0.99 0 1.98 0 3 C-0.99 3.495 -0.99 3.495 -2 4 C-1.34 2.68 -0.68 1.36 0 0 Z M-3 4 C-2.1875 5.6875 -2.1875 5.6875 -2 8 C-4.4375 10.75 -4.4375 10.75 -7 13 C-5.80100302 9.9168649 -4.52299523 6.93720508 -3 4 Z " fill="#FC5E1A" transform="translate(602,465)"/>
<path d="M0 0 C-3.1749094 1.9078584 -5.10585211 2.1609041 -8.75 1.625 C-9.54921875 1.51414062 -10.3484375 1.40328125 -11.171875 1.2890625 C-11.77515625 1.19367188 -12.3784375 1.09828125 -13 1 C-13 0.67 -13 0.34 -13 0 C-8.37078475 -1.0161692 -4.65537393 -0.83796731 0 0 Z " fill="#F92E08" transform="translate(741,509)"/>
<path d="M0 0 C2 1 2 1 2 1 Z " fill="#EC602E" transform="translate(781,716)"/>
<path d="" fill="#F76129" transform="translate(0,0)"/>
<path d="M0 0 C2 1 2 1 2 1 Z " fill="#FE6124" transform="translate(608,601)"/>
<path d="M0 0 C2 1 2 1 2 1 Z " fill="#FC5F26" transform="translate(724,430)"/>
<path d="" fill="#7B6259" transform="translate(0,0)"/>
<path d="" fill="#766C67" transform="translate(0,0)"/>
<path d="" fill="#7A7876" transform="translate(0,0)"/>
<path d="" fill="#80665A" transform="translate(0,0)"/>
<path d="" fill="#808180" transform="translate(0,0)"/>
<path d="" fill="#7C655B" transform="translate(0,0)"/>
<path d="" fill="#797673" transform="translate(0,0)"/>
<path d="" fill="#7A706C" transform="translate(0,0)"/>
<path d="" fill="#6E6964" transform="translate(0,0)"/>
<path d="" fill="#786965" transform="translate(0,0)"/>
<path d="" fill="#F65F29" transform="translate(0,0)"/>
<path d="" fill="#FB5D24" transform="translate(0,0)"/>
<path d="" fill="#FC5B23" transform="translate(0,0)"/>
<path d="" fill="#FC5B22" transform="translate(0,0)"/>
<path d="" fill="#FE5D22" transform="translate(0,0)"/>
<path d="" fill="#FB5A21" transform="translate(0,0)"/>
<path d="" fill="#FC5E22" transform="translate(0,0)"/>
<path d="" fill="#FC5B23" transform="translate(0,0)"/>
<path d="" fill="#FD5A1F" transform="translate(0,0)"/>
<path d="" fill="#FD5B22" transform="translate(0,0)"/>
<path d="" fill="#FC5C22" transform="translate(0,0)"/>
<path d="" fill="#FE5D22" transform="translate(0,0)"/>
<path d="" fill="#FC5C20" transform="translate(0,0)"/>
<path d="" fill="#FB5B22" transform="translate(0,0)"/>
<path d="" fill="#FD5B23" transform="translate(0,0)"/>
<path d="" fill="#FD5C22" transform="translate(0,0)"/>
<path d="" fill="#FC5922" transform="translate(0,0)"/>
<path d="" fill="#FD5B23" transform="translate(0,0)"/>
<path d="" fill="#FF5B22" transform="translate(0,0)"/>
<path d="" fill="#FC5923" transform="translate(0,0)"/>
<path d="" fill="#FB5B22" transform="translate(0,0)"/>
<path d="" fill="#FD5821" transform="translate(0,0)"/>
<path d="" fill="#FD5A21" transform="translate(0,0)"/>
<path d="" fill="#FD5820" transform="translate(0,0)"/>
<path d="" fill="#FD5D22" transform="translate(0,0)"/>
<path d="" fill="#FE5921" transform="translate(0,0)"/>
<path d="" fill="#FE5C24" transform="translate(0,0)"/>
<path d="" fill="#FA5C21" transform="translate(0,0)"/>
<path d="" fill="#FB5B23" transform="translate(0,0)"/>
<path d="" fill="#FC5B25" transform="translate(0,0)"/>
<path d="" fill="#FB5A23" transform="translate(0,0)"/>
<path d="" fill="#F85D24" transform="translate(0,0)"/>
<path d="" fill="#EF6131" transform="translate(0,0)"/>
<path d="" fill="#FF662A" transform="translate(0,0)"/>
<path d="" fill="#FE5F25" transform="translate(0,0)"/>
<path d="" fill="#FE5D27" transform="translate(0,0)"/>
<path d="" fill="#F7602A" transform="translate(0,0)"/>
<path d="" fill="#FB612A" transform="translate(0,0)"/>
<path d="" fill="#F76029" transform="translate(0,0)"/>
<path d="" fill="#FC632B" transform="translate(0,0)"/>
<path d="" fill="#FA6129" transform="translate(0,0)"/>
<path d="" fill="#FF5F25" transform="translate(0,0)"/>
<path d="" fill="#FA6129" transform="translate(0,0)"/>
<path d="" fill="#FE6023" transform="translate(0,0)"/>
<path d="" fill="#FF6026" transform="translate(0,0)"/>
<path d="" fill="#897D79" transform="translate(0,0)"/>
<path d="" fill="#FF5F29" transform="translate(0,0)"/>
<path d="" fill="#F2642D" transform="translate(0,0)"/>
<path d="" fill="#FD5F21" transform="translate(0,0)"/>
<path d="" fill="#FC6228" transform="translate(0,0)"/>
<path d="" fill="#FE6227" transform="translate(0,0)"/>
<path d="" fill="#FF6326" transform="translate(0,0)"/>
<path d="" fill="#FF601F" transform="translate(0,0)"/>
<path d="" fill="#FF6127" transform="translate(0,0)"/>
<path d="" fill="#FC5B1F" transform="translate(0,0)"/>
<path d="" fill="#FE6026" transform="translate(0,0)"/>
<path d="" fill="#FE591F" transform="translate(0,0)"/>
<path d="" fill="#FF5E24" transform="translate(0,0)"/>
<path d="" fill="#FF5C23" transform="translate(0,0)"/>
<path d="" fill="#FF5D25" transform="translate(0,0)"/>
<path d="" fill="#FF5D25" transform="translate(0,0)"/>
<path d="" fill="#FF5E27" transform="translate(0,0)"/>
<path d="" fill="#F8662C" transform="translate(0,0)"/>
<path d="" fill="#FC5E23" transform="translate(0,0)"/>
<path d="" fill="#FC6224" transform="translate(0,0)"/>
<path d="" fill="#F95F23" transform="translate(0,0)"/>
<path d="" fill="#FE6427" transform="translate(0,0)"/>
<path d="" fill="#FB6228" transform="translate(0,0)"/>
<path d="" fill="#FD6229" transform="translate(0,0)"/>
<path d="" fill="#FD6124" transform="translate(0,0)"/>
<path d="" fill="#F06530" transform="translate(0,0)"/>
<path d="" fill="#F16530" transform="translate(0,0)"/>
<path d="" fill="#EC6632" transform="translate(0,0)"/>
<path d="" fill="#FE6423" transform="translate(0,0)"/>
<path d="" fill="#FC6024" transform="translate(0,0)"/>
<path d="" fill="#FF5E23" transform="translate(0,0)"/>
<path d="" fill="#FD581C" transform="translate(0,0)"/>
<path d="" fill="#FE6121" transform="translate(0,0)"/>
<path d="" fill="#FC5F25" transform="translate(0,0)"/>
<path d="" fill="#FF6426" transform="translate(0,0)"/>
<path d="" fill="#FD5D23" transform="translate(0,0)"/>
<path d="" fill="#FF6025" transform="translate(0,0)"/>
<path d="" fill="#FC5C24" transform="translate(0,0)"/>
<path d="" fill="#FE5F27" transform="translate(0,0)"/>
<path d="" fill="#FE6124" transform="translate(0,0)"/>
<path d="" fill="#FD5D26" transform="translate(0,0)"/>
<path d="" fill="#8A7C76" transform="translate(0,0)"/>
<path d="" fill="#FE6027" transform="translate(0,0)"/>
<path d="" fill="#FD5F24" transform="translate(0,0)"/>
<path d="" fill="#FB5D20" transform="translate(0,0)"/>
<path d="" fill="#FF5E23" transform="translate(0,0)"/>
<path d="" fill="#FF6025" transform="translate(0,0)"/>
<path d="" fill="#FF5D22" transform="translate(0,0)"/>
<path d="" fill="#FF6227" transform="translate(0,0)"/>
<path d="" fill="#F85D22" transform="translate(0,0)"/>
<path d="" fill="#F85F28" transform="translate(0,0)"/>
<path d="" fill="#FA6129" transform="translate(0,0)"/>
<path d="" fill="#FB6127" transform="translate(0,0)"/>
<path d="" fill="#7E7F7D" transform="translate(0,0)"/>
<path d="" fill="#9B7A6D" transform="translate(0,0)"/>
<path d="" fill="#F75E27" transform="translate(0,0)"/>
<path d="" fill="#FC6128" transform="translate(0,0)"/>
<path d="" fill="#FA6026" transform="translate(0,0)"/>
<path d="" fill="#F7602B" transform="translate(0,0)"/>
<path d="" fill="#FA6329" transform="translate(0,0)"/>
<path d="" fill="#F86328" transform="translate(0,0)"/>
<path d="" fill="#EF6432" transform="translate(0,0)"/>
<path d="" fill="#8F776F" transform="translate(0,0)"/>
<path d="" fill="#93766A" transform="translate(0,0)"/>
<path d="" fill="#817A77" transform="translate(0,0)"/>
<path d="" fill="#887771" transform="translate(0,0)"/>
<path d="" fill="#7D7F7D" transform="translate(0,0)"/>
<path d="" fill="#807E7C" transform="translate(0,0)"/>
<path d="" fill="#807D7C" transform="translate(0,0)"/>
<path d="" fill="#818080" transform="translate(0,0)"/>
</svg>
