<?xml version="1.0" encoding="UTF-8" standalone="no"?>
<svg 
  version="1.1" 
  xmlns="http://www.w3.org/2000/svg" 
  xmlns:xlink="http://www.w3.org/1999/xlink" 
  xmlns:svg="http://www.w3.org/2000/svg"
  xmlns:rdf="http://www.w3.org/1999/02/22-rdf-syntax-ns#"
  xmlns:cc="http://creativecommons.org/ns#"
  xmlns:dc="http://purl.org/dc/elements/1.1/"
  viewBox="0 0 768 768"
  width="768"
  height="768"
>
<style>svg {background-color: white; }</style>"
<metadata id="metadata1">
Created by https://svgstud.io and licensed under CC-BY-SA 4.0 license. Please attribute https://svgstud.io
</metadata>
<metadata id="prompt">
good looking bodybuilder
</metadata>
<metadata id="version">
7
</metadata>
<metadata id="metadata2">
<rdf:RDF>
<cc:Work
    rdf:about="">
    <cc:license
    rdf:resource="http://creativecommons.org/licenses/by-sa/4.0/" />
    <dc:creator>
        <cc:Agent>
            <dc:title>https://svgstud.io</dc:title>
        </cc:Agent>
    </dc:creator>
</cc:Work>
<cc:License
    rdf:about="http://creativecommons.org/licenses/by-sa/4.0/">
    <cc:permits
    rdf:resource="http://creativecommons.org/ns#Reproduction" />
    <cc:permits
    rdf:resource="http://creativecommons.org/ns#Distribution" />
    <cc:requires
    rdf:resource="http://creativecommons.org/ns#Notice" />
    <cc:requires
    rdf:resource="http://creativecommons.org/ns#Attribution" />
    <cc:permits
    rdf:resource="http://creativecommons.org/ns#DerivativeWorks" />
    <cc:requires
    rdf:resource="http://creativecommons.org/ns#ShareAlike" />
</cc:License>
</rdf:RDF>
</metadata>
<metadata id="uid">
52a51e068bc48943b48fa85066cc9e377ded25d1c38fabc75321b3d744f7d9e9
</metadata>
<path stroke="none" fill="black" fill-rule="evenodd" d="M289.87,768.00C223.00,768.00 223.00,768.00 223.00,764.75C223.01,762.96 223.69,757.31 224.52,752.18C225.35,747.05 225.75,742.40 225.40,741.83C225.05,741.27 223.58,741.06 222.13,741.36C220.68,741.66 217.25,742.44 214.50,743.08C210.78,743.95 208.46,743.97 205.45,743.14C203.23,742.53 199.06,740.28 196.20,738.15C191.60,734.71 189.96,734.13 182.24,733.13C177.43,732.51 171.87,731.54 169.89,730.99C167.90,730.43 165.20,728.93 163.89,727.65C162.57,726.36 159.57,723.00 157.21,720.18C154.86,717.35 152.27,713.18 151.46,710.90C150.66,708.61 150.00,705.87 150.00,704.80C150.00,703.14 150.38,703.29 152.52,705.84C153.90,707.48 157.39,710.17 160.27,711.81C163.14,713.45 166.82,716.18 168.44,717.89C170.05,719.60 171.96,721.00 172.69,721.00C173.41,721.00 174.00,720.62 174.00,720.16C174.00,719.69 172.24,716.59 170.09,713.26C167.56,709.35 163.36,704.98 158.16,700.86C153.75,697.36 149.85,693.83 149.49,693.00C149.14,692.17 147.80,686.07 146.52,679.43C144.30,667.92 143.94,667.03 139.07,660.60C136.26,656.88 133.12,652.19 132.10,650.17C131.08,648.15 128.85,643.01 127.15,638.75C125.45,634.49 121.27,626.16 117.87,620.25C114.46,614.34 110.20,607.55 108.39,605.17C106.58,602.79 102.49,597.92 99.30,594.35C96.11,590.78 91.78,585.30 89.68,582.18C87.59,579.06 83.23,571.10 80.00,564.50C76.77,557.90 71.90,546.20 69.18,538.50C66.45,530.80 60.93,518.07 56.91,510.22C49.95,496.65 49.59,495.60 49.59,489.19C49.59,482.87 50.06,481.47 57.17,466.48C61.35,457.69 66.60,446.17 68.85,440.87C71.10,435.58 73.85,427.92 74.97,423.86C76.12,419.64 77.40,410.46 77.95,402.48C78.54,393.87 79.84,384.82 81.35,378.92C82.70,373.65 85.24,366.45 87.01,362.92C88.77,359.39 92.61,352.89 95.52,348.48C98.44,344.06 103.70,337.51 107.22,333.90C110.73,330.30 116.16,325.47 119.28,323.16C122.41,320.85 126.10,318.53 127.49,318.00C130.01,317.04 130.01,317.04 129.37,307.25C128.89,299.89 129.15,295.36 130.42,289.09C131.35,284.49 133.28,277.83 134.70,274.28C136.12,270.73 139.48,264.45 142.17,260.33C144.86,256.21 150.14,249.81 153.90,246.10C158.42,241.64 163.39,237.99 168.61,235.30C172.95,233.06 180.55,230.06 185.50,228.62C190.45,227.18 197.88,225.57 202.00,225.03C206.12,224.50 212.45,224.05 216.05,224.03C221.59,224.00 223.34,223.53 227.34,221.00C229.95,219.34 234.20,216.93 236.79,215.62C239.38,214.32 245.55,212.12 250.50,210.73C255.45,209.34 266.25,206.75 274.50,204.97C283.70,202.99 291.76,200.60 295.33,198.81C298.54,197.20 303.22,194.00 305.73,191.69C308.24,189.39 310.90,186.05 311.65,184.28C312.39,182.51 313.00,180.06 313.00,178.84C313.00,177.61 311.85,174.94 310.44,172.91C308.03,169.44 307.94,168.86 308.90,163.36C309.47,160.14 310.71,153.11 311.66,147.75C313.38,138.06 313.38,137.95 311.08,128.40C309.81,123.13 308.54,115.11 308.25,110.60C307.89,104.75 308.20,100.83 309.33,96.92C310.38,93.32 310.99,86.84 311.11,77.97C311.22,69.40 311.83,62.68 312.78,59.50C313.61,56.75 315.20,53.15 316.33,51.50C317.45,49.85 321.24,45.03 324.74,40.79C328.24,36.55 334.12,30.82 337.80,28.06C341.49,25.29 349.02,20.78 354.54,18.03C360.07,15.28 367.27,12.11 370.54,10.98C373.82,9.85 379.43,8.23 383.00,7.37C386.57,6.52 395.35,5.57 402.51,5.28C413.66,4.81 416.72,5.04 424.01,6.87C428.68,8.04 435.20,10.33 438.50,11.95C441.80,13.57 446.70,17.06 449.39,19.70C452.08,22.34 455.10,26.30 456.12,28.50C457.13,30.70 457.97,33.75 457.98,35.28C457.99,36.81 458.56,38.22 459.25,38.42C459.94,38.61 462.44,39.30 464.81,39.94C467.18,40.59 470.80,42.63 472.85,44.48C474.89,46.33 477.56,49.84 478.78,52.28C480.00,54.72 481.43,59.02 481.97,61.84C482.62,65.25 482.59,68.88 481.89,72.73C481.32,75.90 479.33,81.65 477.48,85.50C475.63,89.35 471.27,95.72 467.81,99.65C463.10,104.99 460.17,109.68 456.26,118.15C453.38,124.39 450.53,129.38 449.94,129.22C449.34,129.07 447.45,130.12 445.74,131.56C443.03,133.85 442.07,134.09 438.07,133.51C435.56,133.14 431.61,131.80 429.30,130.52C426.48,128.96 424.96,128.58 424.67,129.35C424.43,129.98 423.73,129.23 423.12,127.68C422.50,126.14 422.00,123.30 422.00,121.39C422.00,119.47 422.63,116.69 423.40,115.20C424.18,113.72 425.87,111.54 427.15,110.36C428.83,108.83 431.35,108.05 436.00,107.62C439.57,107.29 445.50,106.73 449.16,106.38C455.83,105.74 455.83,105.74 455.43,98.62C455.22,94.70 454.84,87.38 454.59,82.35C454.34,77.30 453.55,72.25 452.82,71.08C452.09,69.91 449.71,68.47 447.53,67.88C445.23,67.26 440.61,67.08 436.53,67.45C431.37,67.93 426.71,67.56 419.00,66.08C413.23,64.96 401.14,63.62 392.15,63.09C382.87,62.54 374.82,62.50 373.53,62.99C372.28,63.46 370.30,65.07 369.13,66.56C367.96,68.05 367.00,70.06 367.00,71.03C367.00,72.00 364.81,77.45 362.13,83.15C359.46,88.84 355.88,95.21 354.19,97.31C352.51,99.41 350.16,104.03 348.97,107.58C347.79,111.13 345.40,116.14 343.66,118.71C341.92,121.28 339.94,123.55 339.27,123.77C338.59,123.98 336.72,122.72 335.11,120.96C333.36,119.05 331.71,118.06 331.00,118.50C330.30,118.93 330.01,120.52 330.30,122.37C330.57,124.09 331.12,126.51 331.51,127.75C331.99,129.24 331.83,130.00 331.02,130.00C330.35,130.00 327.76,128.20 325.26,126.00C322.76,123.80 320.38,122.00 319.97,122.00C319.56,122.00 318.45,120.35 317.49,118.34C315.98,115.15 315.91,113.98 316.97,109.26C317.63,106.28 317.95,103.62 317.67,103.34C317.39,103.06 316.34,104.09 315.33,105.62C314.02,107.62 313.50,110.31 313.50,115.04C313.50,120.66 313.96,122.40 316.50,126.49C318.15,129.14 320.67,132.18 322.10,133.24C323.61,134.36 326.55,135.24 329.10,135.33C333.50,135.50 333.50,135.50 334.34,146.50C334.80,152.55 335.82,159.86 336.61,162.75C337.41,165.63 339.41,169.54 341.07,171.43C342.73,173.32 347.78,177.23 352.29,180.13C356.81,183.02 366.35,188.42 373.50,192.12C380.65,195.82 389.20,199.64 392.50,200.60C396.47,201.77 402.11,202.39 409.17,202.43C418.50,202.49 420.19,202.24 422.67,200.40C424.23,199.25 426.74,195.87 428.25,192.90C429.76,189.93 432.11,184.12 433.47,180.00C434.83,175.88 437.03,169.57 438.37,166.00C439.71,162.43 442.67,155.27 444.95,150.10C447.23,144.93 449.51,139.08 450.03,137.10C450.82,134.05 450.90,134.49 450.60,140.00C450.32,145.05 448.74,150.41 443.55,164.00C439.87,173.62 435.12,185.10 433.00,189.50C430.87,193.90 427.83,199.53 426.24,202.00C424.56,204.61 421.69,207.35 419.42,208.52C416.19,210.19 414.75,212.03 411.21,219.02C408.85,223.69 404.52,231.55 401.58,236.50C398.65,241.45 395.30,247.39 394.13,249.71C392.96,252.03 392.00,255.29 392.00,256.96C392.00,259.29 392.45,260.00 393.92,260.00C394.98,260.00 397.93,257.92 400.47,255.37C403.02,252.82 406.44,248.10 408.07,244.87C409.70,241.64 411.24,239.00 411.50,239.00C411.76,239.00 413.05,241.14 414.38,243.75C415.70,246.36 417.74,249.37 418.92,250.43C420.48,251.84 421.34,252.06 422.16,251.24C422.97,250.43 422.96,248.10 422.13,242.53C421.51,238.34 421.00,230.86 421.00,225.90C421.00,220.94 421.34,217.09 421.75,217.35C422.16,217.60 423.62,220.89 425.00,224.65C426.84,229.69 428.83,232.85 432.53,236.60C435.89,240.00 439.40,242.38 443.08,243.76C446.12,244.89 454.26,246.99 461.17,248.41C470.74,250.38 476.69,251.00 486.18,251.00C495.41,251.00 500.67,251.52 506.56,253.03C510.93,254.15 517.72,256.62 521.65,258.54C525.59,260.45 530.23,263.63 531.96,265.61C533.70,267.59 534.92,269.41 534.68,269.65C534.43,269.90 530.02,267.85 524.87,265.10C519.72,262.35 511.45,258.78 506.50,257.17C501.55,255.56 494.22,253.70 490.21,253.03C484.78,252.12 481.35,252.08 476.70,252.89C473.28,253.49 465.98,254.02 460.49,254.08C454.99,254.13 443.75,253.86 435.50,253.48C421.49,252.84 420.10,252.94 414.50,255.02C411.20,256.24 405.24,259.67 401.27,262.64C394.03,268.02 394.03,268.02 384.47,261.40C379.20,257.76 374.27,253.81 373.50,252.64C372.73,251.46 370.99,247.57 369.65,244.00C368.30,240.43 364.91,232.26 362.12,225.86C359.33,219.45 354.77,210.23 351.99,205.36C349.20,200.49 343.81,192.96 340.00,188.64C336.19,184.31 332.18,178.91 331.08,176.64C329.99,174.36 328.60,169.35 328.00,165.50C327.40,161.65 326.46,156.81 325.92,154.75C325.37,152.69 324.49,151.00 323.96,151.00C323.43,151.00 323.00,151.15 323.00,151.33C323.00,151.50 322.11,156.57 321.02,162.58C319.94,168.58 318.17,175.97 317.11,179.00C316.04,182.03 314.66,187.34 314.03,190.82C313.18,195.52 313.17,198.53 314.01,202.57C314.63,205.56 315.54,208.00 316.03,208.00C316.52,208.00 317.61,205.67 318.46,202.82C319.31,199.97 320.00,196.77 320.00,195.71C320.00,194.65 320.75,190.66 321.68,186.84C322.65,182.80 323.65,180.43 324.06,181.19C324.45,181.91 325.76,186.55 326.96,191.50C328.17,196.45 330.74,205.45 332.68,211.50C334.62,217.55 338.02,226.89 340.23,232.26C343.30,239.69 344.77,242.13 346.38,242.45C347.55,242.68 349.98,243.12 351.79,243.42C353.99,243.78 355.24,243.53 355.58,242.66C355.86,241.93 355.60,240.08 355.01,238.53C354.42,236.99 354.11,235.55 354.32,235.34C354.53,235.13 357.00,238.57 359.81,242.98C362.61,247.39 364.46,251.00 363.90,251.00C363.35,251.00 358.98,249.91 354.20,248.57C349.41,247.23 340.72,245.43 334.87,244.57C329.03,243.71 323.04,243.00 321.56,243.00C320.09,243.00 319.13,242.60 319.44,242.10C319.74,241.61 323.17,240.89 327.04,240.50C331.61,240.04 333.97,239.38 333.75,238.64C333.56,238.01 331.51,236.54 329.21,235.36C326.14,233.79 322.26,233.03 314.76,232.54C309.12,232.16 303.67,231.62 302.66,231.33C300.92,230.84 300.93,230.70 302.87,228.64C303.99,227.45 305.62,224.76 306.50,222.66C307.38,220.56 308.37,214.33 308.70,208.80C309.32,198.76 309.32,198.76 306.91,199.45C305.58,199.83 302.25,200.99 299.50,202.04C296.75,203.08 286.62,206.27 277.00,209.12C267.38,211.98 252.92,216.22 244.87,218.55C236.83,220.88 228.73,223.49 226.87,224.35C225.02,225.21 221.09,226.84 218.15,227.98C214.19,229.51 209.50,230.20 200.15,230.62C193.19,230.93 185.93,231.65 184.00,232.23C182.07,232.81 178.67,234.54 176.44,236.06C174.21,237.59 168.88,242.10 164.61,246.09C160.33,250.08 155.02,256.02 152.80,259.29C150.58,262.56 147.92,267.65 146.88,270.59C145.85,273.54 145.00,276.82 145.00,277.89C145.00,278.96 145.28,280.58 145.63,281.49C146.17,282.87 146.82,282.61 149.76,279.82C153.26,276.50 153.26,276.50 152.63,282.20C152.28,285.34 152.44,291.04 152.98,294.88C153.53,298.71 154.92,304.38 156.08,307.48C157.25,310.62 158.69,312.94 159.34,312.72C159.98,312.51 161.87,308.54 163.54,303.90C165.21,299.26 168.24,292.71 170.28,289.36C172.32,286.00 174.61,282.74 175.36,282.12C176.47,281.20 176.83,281.94 177.33,286.15C177.67,289.00 178.88,294.15 180.03,297.60C181.18,301.05 183.89,306.61 186.04,309.94C188.19,313.27 190.37,316.00 190.88,316.00C191.38,316.00 195.10,313.46 199.15,310.35C203.19,307.25 212.30,299.04 219.38,292.10C226.47,285.17 231.98,280.32 231.64,281.33C231.29,282.33 230.10,286.68 229.00,291.00C227.90,295.31 227.00,300.39 227.00,302.29C227.00,304.19 227.28,307.16 227.63,308.88C227.97,310.59 228.58,312.00 228.99,312.00C229.40,312.00 235.52,307.05 242.59,301.00C249.66,294.95 255.82,290.00 256.28,290.00C256.74,290.00 255.67,292.71 253.91,296.02C252.15,299.33 250.98,302.31 251.31,302.64C251.64,302.98 253.79,302.50 256.08,301.58C258.37,300.67 260.46,300.13 260.72,300.38C260.97,300.64 260.91,301.70 260.58,302.74C260.25,303.78 256.39,309.10 252.00,314.57C247.61,320.03 244.12,325.01 244.26,325.63C244.39,326.26 249.00,330.10 254.50,334.18C260.00,338.26 267.31,343.51 270.74,345.83C274.18,348.16 279.13,351.00 281.74,352.13C284.36,353.27 288.75,354.90 291.50,355.75C294.25,356.60 299.88,357.30 304.00,357.32C308.36,357.33 316.73,356.24 324.00,354.70C330.88,353.25 338.07,351.60 339.99,351.03C341.91,350.47 343.61,350.00 343.76,350.00C343.91,350.00 343.78,351.04 343.46,352.32C342.88,354.63 342.88,354.63 350.69,353.81C354.98,353.36 362.05,352.10 366.39,351.01C370.73,349.92 376.20,347.90 378.54,346.53C380.87,345.16 383.98,342.62 385.44,340.89C386.90,339.15 389.09,335.88 390.30,333.62C392.35,329.78 392.50,328.18 392.50,310.00C392.50,299.27 392.13,288.25 391.68,285.50C391.08,281.88 391.15,280.91 391.92,282.00C392.51,282.82 393.89,285.87 394.99,288.76C396.08,291.66 398.12,301.91 399.52,311.56C400.92,321.21 403.02,331.66 404.18,334.80C405.77,339.08 407.97,342.14 413.01,347.12C417.21,351.26 422.11,354.89 426.11,356.83C429.99,358.72 436.13,360.55 441.74,361.49C446.82,362.35 457.81,363.71 466.17,364.52C474.52,365.32 481.58,365.75 481.86,365.48C482.13,365.20 481.20,363.75 479.79,362.24C478.38,360.73 476.94,358.57 476.60,357.43C476.17,355.98 476.74,354.65 478.53,352.97C480.83,350.81 481.31,350.71 483.29,351.96C484.51,352.73 486.72,354.06 488.22,354.93C490.72,356.37 491.07,356.36 492.68,354.74C494.14,353.29 494.25,352.50 493.33,350.07C492.23,347.14 492.23,347.14 496.28,347.32C500.18,347.49 500.42,347.32 502.91,342.53C505.04,338.44 505.49,336.21 505.47,330.03C505.45,323.47 504.88,321.15 501.11,312.00C498.73,306.23 496.56,300.94 496.28,300.25C496.01,299.56 496.35,299.00 497.03,299.00C497.71,299.00 505.12,306.04 513.50,314.64C523.54,324.96 529.15,330.03 529.96,329.52C530.72,329.05 530.98,327.65 530.63,325.92C530.32,324.36 530.43,322.85 530.87,322.58C531.31,322.31 533.41,323.86 535.54,326.04C537.67,328.22 539.74,330.00 540.16,330.00C540.57,330.00 541.23,328.31 541.62,326.25C542.06,323.90 541.47,316.97 540.05,307.69C538.80,299.55 538.00,292.66 538.28,292.39C538.55,292.12 540.93,295.13 543.56,299.10C546.20,303.06 549.47,309.05 550.82,312.40C552.18,315.76 553.94,322.77 554.73,328.00C555.52,333.23 556.37,338.54 556.62,339.82C556.87,341.10 557.62,341.98 558.29,341.79C558.95,341.59 560.94,338.52 562.70,334.97C564.46,331.41 566.43,325.35 567.09,321.50C567.97,316.26 567.99,312.70 567.17,307.37C566.56,303.46 565.12,297.71 563.96,294.61C562.80,291.51 560.39,286.81 558.62,284.17C556.84,281.53 554.06,277.64 552.45,275.52C550.01,272.33 549.87,271.86 551.59,272.78C552.74,273.39 556.35,276.76 559.62,280.26C563.12,283.99 567.08,289.68 569.24,294.06C571.26,298.15 573.65,304.20 574.56,307.50C575.46,310.80 576.44,318.29 576.72,324.14C577.12,332.11 576.82,336.72 575.54,342.48C574.59,346.71 573.14,351.82 572.31,353.84C571.47,355.85 570.67,357.63 570.53,357.78C570.38,357.94 563.79,354.90 555.88,351.03C544.40,345.40 539.93,343.75 533.72,342.81C527.00,341.79 525.73,341.84 524.41,343.16C523.57,344.00 522.01,348.02 520.96,352.10C519.80,356.54 519.03,362.90 519.02,368.02C519.01,373.51 519.71,379.10 520.99,383.74C522.09,387.70 525.11,395.77 527.70,401.69C530.29,407.60 534.57,415.67 537.21,419.62C539.85,423.57 543.51,428.09 545.34,429.65C547.17,431.22 552.11,434.98 556.32,438.00C561.27,441.56 567.21,447.30 573.11,454.25C578.14,460.16 582.59,465.00 583.02,465.00C583.44,465.00 584.06,464.29 584.39,463.42C584.73,462.55 585.00,460.04 585.00,457.84C585.00,455.58 583.70,450.87 582.01,447.02C580.37,443.28 578.17,436.68 577.14,432.36C576.10,428.03 574.58,422.48 573.74,420.00C572.91,417.52 571.90,413.02 571.51,410.00C571.05,406.43 571.14,404.85 571.77,405.50C572.30,406.05 573.72,409.78 574.91,413.80C576.11,417.81 578.60,423.44 580.45,426.30C582.30,429.16 586.36,434.65 589.48,438.50C592.59,442.35 596.24,447.62 597.57,450.22C598.91,452.81 600.00,456.07 600.00,457.46C600.00,458.95 598.47,461.76 596.31,464.25C594.28,466.59 589.13,472.10 584.87,476.50C580.60,480.90 573.32,490.19 568.69,497.14C564.06,504.10 558.89,513.12 557.19,517.20C555.49,521.28 552.91,528.64 551.46,533.56C549.95,538.65 548.58,546.26 548.27,551.25C547.84,558.15 548.00,560.00 549.06,560.00C549.79,560.00 551.65,558.79 553.20,557.31C555.21,555.38 556.00,555.06 556.00,556.16C556.00,557.00 554.17,562.07 551.93,567.43C549.69,572.80 548.12,577.46 548.46,577.79C548.79,578.12 553.21,574.31 558.28,569.31C563.35,564.31 568.55,559.68 569.84,559.03C571.12,558.37 572.37,558.04 572.62,558.29C572.86,558.53 568.69,564.76 563.34,572.12C557.98,579.48 550.60,589.10 546.92,593.50C543.24,597.90 538.80,602.85 537.05,604.50C533.97,607.41 533.57,607.50 524.18,607.50C517.37,607.50 512.13,606.86 506.50,605.33C502.10,604.14 496.36,602.68 493.74,602.08C491.12,601.49 487.33,601.00 485.32,601.00C483.32,601.00 473.85,603.11 464.28,605.69C449.23,609.74 446.41,610.82 443.37,613.69C441.44,615.51 439.51,617.00 439.08,617.00C438.66,617.00 436.66,618.60 434.65,620.55C432.60,622.54 431.00,625.07 431.00,626.33C431.00,627.55 431.70,629.56 432.56,630.78C433.41,632.00 434.77,633.00 435.57,633.00C436.37,633.00 439.26,630.64 441.99,627.75C444.73,624.86 446.97,621.71 446.98,620.75C446.99,619.79 447.42,619.00 447.94,619.00C448.46,619.00 449.15,619.43 449.48,619.96C449.80,620.49 451.70,621.37 453.68,621.92C456.15,622.61 457.91,622.58 459.29,621.85C460.39,621.26 462.24,619.67 463.40,618.32C464.67,616.84 466.12,616.11 467.05,616.47C467.91,616.79 469.03,618.51 469.55,620.28C470.31,622.86 470.97,623.45 472.87,623.24C474.91,623.02 474.42,623.86 469.37,629.27C466.14,632.72 461.97,638.47 460.10,642.03C458.24,645.59 454.65,651.42 452.13,655.00C449.62,658.58 444.96,664.30 441.78,667.72C436.76,673.13 436.00,674.47 436.00,677.90C436.00,680.16 436.67,682.53 437.57,683.43C438.43,684.29 440.21,685.27 441.52,685.59C442.82,685.92 445.48,685.67 447.42,685.03C449.36,684.38 452.65,681.92 454.73,679.55C456.80,677.18 461.65,671.18 465.50,666.21C469.70,660.80 474.10,656.28 476.50,654.92C478.70,653.67 482.80,650.70 485.61,648.32C488.42,645.95 491.00,644.00 491.36,644.00C491.71,644.00 492.00,645.07 492.00,646.37C492.00,647.68 491.32,650.67 490.50,653.01C489.67,655.36 486.97,660.00 484.50,663.33C482.02,666.65 480.00,669.91 480.00,670.57C480.00,671.23 478.00,672.27 475.55,672.88C471.65,673.87 470.15,675.15 463.55,683.20C457.56,690.50 456.00,693.08 456.00,695.68C456.00,698.05 456.68,699.40 458.44,700.55C459.77,701.43 462.14,702.00 463.69,701.82C466.26,701.53 466.48,701.19 466.22,697.84C465.96,694.50 466.20,694.11 468.88,693.53C470.59,693.15 473.90,690.68 476.79,687.63C479.52,684.75 482.52,680.90 483.46,679.08C484.40,677.26 484.95,674.92 484.68,673.88C484.23,672.17 484.83,672.00 491.47,672.00C495.47,672.00 500.68,671.32 503.03,670.49C505.39,669.66 507.54,669.21 507.83,669.49C508.11,669.77 507.27,672.30 505.95,675.10C504.64,677.90 502.48,681.05 501.15,682.09C499.83,683.14 497.01,684.46 494.90,685.03C491.90,685.84 489.31,688.04 483.03,695.15C478.61,700.15 475.00,705.07 475.00,706.08C475.00,707.10 475.92,708.42 477.05,709.03C478.18,709.63 480.31,709.98 481.80,709.81C483.89,709.57 484.57,708.89 484.81,706.80C484.99,705.28 485.90,703.85 486.90,703.53C487.88,703.22 491.22,699.71 494.31,695.73C497.40,691.75 501.27,686.63 502.90,684.35C505.11,681.26 507.25,679.68 511.19,678.22C514.11,677.14 517.48,675.95 518.67,675.59C520.29,675.08 520.99,675.41 521.46,676.87C521.80,677.94 522.72,679.06 523.51,679.37C524.31,679.67 528.33,677.66 532.47,674.89C536.60,672.13 540.66,668.90 541.49,667.71C542.32,666.53 543.00,665.15 543.00,664.66C543.00,664.17 541.86,663.98 540.48,664.25C539.09,664.51 537.75,664.41 537.51,664.01C537.26,663.62 538.33,661.31 539.89,658.90C541.44,656.48 545.81,651.61 549.60,648.07C553.40,644.54 559.15,639.14 562.39,636.07C565.63,633.01 572.44,625.27 577.54,618.89C583.35,611.60 591.46,603.12 599.33,596.11C606.22,589.97 614.29,581.70 617.27,577.72C620.24,573.75 624.98,566.67 627.81,562.00C630.63,557.33 634.80,548.83 637.07,543.13C639.35,537.43 641.56,530.23 642.00,527.13C642.48,523.68 642.41,521.11 641.81,520.50C641.16,519.84 639.73,520.76 637.59,523.21C635.81,525.26 632.40,531.49 630.02,537.06C627.64,542.63 623.79,549.78 621.46,552.95C618.83,556.52 614.23,560.80 609.36,564.23C605.04,567.26 598.80,571.10 595.50,572.74C592.20,574.39 588.42,576.07 587.11,576.48C584.82,577.19 584.86,577.02 588.11,572.42C589.97,569.78 599.16,559.71 608.51,550.06C617.87,540.40 627.14,530.25 629.10,527.50C631.07,524.75 635.21,517.08 638.29,510.47C641.37,503.85 644.31,496.57 644.82,494.28C645.34,492.00 645.43,488.36 645.03,486.18C644.64,484.01 642.74,479.37 640.82,475.87C638.89,472.36 636.52,467.02 635.55,464.00C634.58,460.98 631.87,454.68 629.53,450.00C627.18,445.32 624.10,437.90 622.68,433.50C621.26,429.10 619.38,422.57 618.50,419.00C617.62,415.43 615.57,408.45 613.94,403.50C612.31,398.55 609.64,392.17 608.01,389.31C606.13,386.04 601.97,381.55 596.77,377.17C592.22,373.34 586.43,368.02 583.90,365.35C581.36,362.68 578.55,359.39 577.65,358.03C576.74,356.67 576.00,354.95 576.00,354.21C576.00,353.28 576.69,353.08 578.25,353.56C579.49,353.94 582.75,355.85 585.50,357.79C588.25,359.74 592.47,363.17 594.88,365.42C597.28,367.66 601.94,373.09 605.23,377.47C608.51,381.86 612.89,388.83 614.96,392.97C617.03,397.11 620.33,405.45 622.31,411.50C624.29,417.55 626.62,425.43 627.50,429.00C628.38,432.57 630.02,438.43 631.16,442.00C632.29,445.57 636.51,455.48 640.54,464.00C644.56,472.52 648.64,482.43 649.60,486.00C650.67,490.00 651.34,496.16 651.34,502.00C651.35,510.14 650.75,513.65 647.14,526.50C644.82,534.75 641.78,545.55 640.38,550.50C638.98,555.45 636.11,563.20 633.99,567.73C631.88,572.25 627.78,579.45 624.89,583.73C621.46,588.80 612.12,598.96 598.00,613.00C580.50,630.39 574.00,637.66 564.02,651.00C557.23,660.08 548.76,672.00 545.19,677.50C541.63,683.00 537.13,689.44 535.20,691.80C533.26,694.17 528.67,697.86 525.00,700.00C521.33,702.14 516.68,705.72 514.66,707.95C511.95,710.95 511.00,712.89 511.00,715.42C511.00,717.30 512.13,726.49 513.51,735.86C514.89,745.22 516.30,756.29 516.66,760.45C517.29,768.01 517.29,768.01 446.40,767.76C375.50,767.50 375.50,767.50 372.82,753.50C371.35,745.80 369.61,736.20 368.96,732.16C368.32,728.12 367.43,725.19 366.98,725.66C366.54,726.12 365.22,731.00 364.05,736.50C362.88,742.00 360.76,751.34 359.33,757.25C356.74,768.00 356.74,768.00 289.87,768.00zM287.49,758.00C288.31,758.00 293.38,755.82 298.74,753.17C304.11,750.51 313.73,744.93 320.12,740.78C326.52,736.62 332.06,732.72 332.43,732.11C332.84,731.45 332.36,731.00 331.23,731.00C330.20,731.00 326.23,732.08 322.43,733.40C318.62,734.72 313.70,736.57 311.50,737.52C309.30,738.46 304.49,741.18 300.81,743.56C297.13,745.94 292.29,749.71 290.06,751.94C287.83,754.17 286.00,756.45 286.00,757.00C286.00,757.55 286.67,758.00 287.49,758.00zM201.51,735.00C202.33,735.00 203.00,734.17 203.00,733.15C203.00,732.13 201.68,729.48 200.07,727.26C198.46,725.03 196.11,722.49 194.85,721.61C193.59,720.72 191.80,720.00 190.88,720.00C189.97,720.00 188.99,720.58 188.72,721.30C188.44,722.01 190.87,725.39 194.12,728.80C197.37,732.21 200.69,735.00 201.51,735.00zM219.07,735.00C219.51,735.00 221.02,734.56 222.43,734.02C223.95,733.45 225.00,732.27 225.00,731.15C225.00,730.10 224.27,728.64 223.39,727.91C222.50,727.17 220.47,724.26 218.88,721.44C217.29,718.62 214.84,715.79 213.44,715.15C211.63,714.33 210.32,714.30 208.94,715.03C207.87,715.60 207.00,717.07 207.01,718.29C207.01,719.50 208.35,722.82 209.97,725.65C211.59,728.48 214.13,731.74 215.60,732.90C217.07,734.05 218.63,735.00 219.07,735.00zM246.71,731.45C249.89,731.07 253.29,730.34 254.25,729.84C255.21,729.34 256.00,728.30 256.00,727.53C256.00,726.76 255.10,725.85 253.99,725.50C252.88,725.15 251.27,723.49 250.41,721.82C249.54,720.14 247.29,714.51 245.40,709.29C243.51,704.07 241.47,698.87 240.86,697.73C240.25,696.60 237.79,693.26 235.39,690.31C232.99,687.37 230.32,683.59 229.45,681.91C227.88,678.86 227.88,678.86 232.19,679.48C235.41,679.95 238.34,679.47 243.80,677.60C250.15,675.41 251.17,675.29 251.69,676.63C252.01,677.48 251.79,679.78 251.18,681.75C250.21,684.91 250.50,686.43 253.64,694.91C255.59,700.19 258.05,705.99 259.10,707.81C260.14,709.63 261.00,711.96 261.00,713.00C261.00,714.04 262.00,715.59 263.22,716.44C264.44,717.30 267.14,718.00 269.22,718.00C271.73,718.00 273.71,717.29 275.10,715.90C276.42,714.58 277.01,713.01 276.71,711.65C276.44,710.47 273.68,704.06 270.58,697.42C265.93,687.44 264.79,683.90 264.00,676.98C263.47,672.38 263.27,668.40 263.54,668.12C263.82,667.85 265.27,668.06 266.77,668.58C268.73,669.27 269.86,670.67 270.76,673.52C271.45,675.71 272.47,679.35 273.01,681.61C273.56,683.87 275.08,687.31 276.39,689.24C277.97,691.57 278.60,693.63 278.27,695.36C277.94,697.11 278.27,698.17 279.27,698.55C280.09,698.87 282.49,698.40 284.60,697.52C286.70,696.64 289.23,695.20 290.21,694.31C291.20,693.42 292.00,691.78 292.00,690.66C292.00,689.54 290.26,686.57 288.14,684.05C286.01,681.53 282.58,676.77 280.50,673.48C278.43,670.19 275.56,666.22 274.12,664.64C272.68,663.07 268.80,659.94 265.50,657.68C262.20,655.43 257.02,652.56 254.00,651.31C250.97,650.07 247.05,649.04 245.27,649.02C243.50,649.01 235.17,646.23 226.77,642.85C211.50,636.70 211.50,636.70 200.30,636.60C194.14,636.55 188.68,636.05 188.16,635.50C187.64,634.95 185.32,628.20 183.00,620.50C180.68,612.80 177.05,600.65 174.92,593.50C172.79,586.35 170.37,578.25 169.55,575.50C168.04,570.50 168.04,570.50 170.41,573.38C172.55,575.98 172.84,576.08 173.36,574.38C173.68,573.35 174.04,560.80 174.16,546.50C174.34,525.33 174.08,519.29 172.76,514.00C171.87,510.43 169.80,503.50 168.15,498.61C165.80,491.61 163.07,486.64 155.33,475.26C149.92,467.30 142.05,457.01 137.83,452.39C131.44,445.39 129.98,443.14 129.08,438.94C128.49,436.17 128.00,426.75 128.00,418.01C128.00,408.05 127.61,401.88 126.96,401.47C126.38,401.12 125.27,401.36 124.49,402.01C123.71,402.66 120.97,406.86 118.40,411.35C115.83,415.83 110.67,424.09 106.92,429.69C103.18,435.30 99.41,441.24 98.55,442.89C97.70,444.55 97.01,447.84 97.03,450.20C97.05,452.67 98.05,456.42 99.37,459.00C100.64,461.48 103.37,466.65 105.44,470.50C109.07,477.27 109.13,477.51 107.05,477.83C105.87,478.01 103.11,477.22 100.92,476.08C98.73,474.93 96.28,474.00 95.47,474.00C94.66,474.00 94.00,474.82 94.00,475.82C94.00,476.82 99.40,488.26 106.00,501.25C112.60,514.24 118.00,525.59 118.00,526.47C118.00,527.78 117.32,527.61 114.31,525.56C112.28,524.18 110.43,523.24 110.20,523.47C109.97,523.70 110.83,525.37 112.12,527.19C113.40,529.01 116.60,533.18 119.23,536.46C121.86,539.73 124.93,544.87 126.05,547.87C127.18,550.87 127.96,554.21 127.80,555.29C127.53,557.02 126.62,556.65 120.00,552.14C115.88,549.33 112.35,547.46 112.17,548.00C111.99,548.53 113.91,552.04 116.44,555.81C118.97,559.58 129.24,571.01 139.27,581.20C149.31,591.41 158.94,602.17 160.70,605.12C162.46,608.08 164.24,611.40 164.65,612.50C165.37,614.43 165.31,614.44 162.95,612.81C161.60,611.88 156.68,608.73 152.00,605.81C147.33,602.89 139.57,596.72 134.75,592.11C129.94,587.49 126.00,584.37 126.00,585.17C126.00,585.97 127.09,589.41 128.43,592.82C129.76,596.23 133.82,604.61 137.45,611.44C141.08,618.28 144.75,625.81 145.62,628.19C146.54,630.72 147.30,636.54 147.46,642.30C147.71,651.48 147.92,652.33 150.70,655.80C152.33,657.83 158.13,663.44 163.59,668.25C169.04,673.07 176.48,678.57 180.11,680.48C183.75,682.40 187.33,684.70 188.07,685.59C189.30,687.07 188.52,687.18 179.04,686.85C171.42,686.59 168.56,686.83 168.25,687.74C168.03,688.42 169.45,691.63 171.42,694.87C173.39,698.11 175.01,701.15 175.02,701.63C175.03,702.11 175.85,703.55 176.84,704.84C178.21,706.61 180.51,707.53 186.43,708.64C190.71,709.45 194.44,709.89 194.71,709.62C194.98,709.35 194.18,707.31 192.92,705.08C191.67,702.85 190.91,700.75 191.24,700.43C191.57,700.10 195.26,700.59 199.43,701.52C203.61,702.45 207.69,702.95 208.50,702.64C209.63,702.20 209.83,701.03 209.35,697.54C208.82,693.63 208.97,693.00 210.49,693.00C211.46,693.00 214.60,694.34 217.47,695.98C222.05,698.60 223.06,699.80 225.72,705.73C227.38,709.46 229.71,714.99 230.90,718.03C232.08,721.07 234.82,725.49 236.98,727.86C240.91,732.16 240.91,732.16 246.71,731.45zM299.31,729.44C301.61,729.13 307.91,727.98 313.29,726.88C318.68,725.78 327.23,723.30 332.29,721.36C337.36,719.41 341.95,717.36 342.50,716.79C343.18,716.09 340.66,715.93 334.50,716.28C329.55,716.57 321.90,717.55 317.50,718.47C313.10,719.39 307.02,721.26 304.00,722.62C300.98,723.99 297.47,725.78 296.22,726.60C294.96,727.42 294.20,728.52 294.53,729.05C294.85,729.57 297.01,729.75 299.31,729.44zM502.37,709.00C504.64,709.00 506.40,708.17 508.17,706.25C509.56,704.74 512.12,701.39 513.85,698.82C515.58,696.25 517.00,693.43 517.00,692.57C517.00,691.71 516.21,691.02 515.25,691.04C514.29,691.05 512.56,691.62 511.41,692.29C510.27,692.95 506.76,696.55 503.62,700.27C500.48,704.00 498.18,707.49 498.51,708.02C498.85,708.56 500.58,709.00 502.37,709.00zM312.18,706.87C314.75,706.94 320.32,706.52 324.55,705.93C328.78,705.34 333.42,704.40 334.87,703.83C337.42,702.83 337.43,702.77 335.39,701.98C334.23,701.53 329.05,700.70 323.89,700.12C318.73,699.55 311.40,698.95 307.62,698.79C301.94,698.55 300.54,698.81 299.62,700.25C298.81,701.52 298.81,702.48 299.61,703.75C300.21,704.71 302.24,705.78 304.10,706.12C305.97,706.46 309.60,706.80 312.18,706.87zM394.71,700.00C394.93,700.00 395.95,698.09 396.98,695.75C398.01,693.41 399.41,687.00 400.09,681.50C401.01,674.07 401.09,665.40 400.41,647.80C399.75,630.52 399.14,623.75 398.18,622.80C397.10,621.73 396.64,621.81 395.59,623.22C394.71,624.42 394.12,631.66 393.65,647.12C393.29,659.31 393.28,676.20 393.65,684.65C394.01,693.09 394.49,700.00 394.71,700.00zM345.00,689.83C351.66,689.92 352.29,689.78 350.64,688.52C349.61,687.75 342.19,685.54 334.14,683.61C326.09,681.69 315.00,679.23 309.50,678.16C304.00,677.08 297.89,675.97 295.91,675.69C293.94,675.41 291.74,675.54 291.02,675.99C290.30,676.43 289.96,677.45 290.26,678.24C290.57,679.04 292.47,680.47 294.49,681.43C296.50,682.38 302.51,684.24 307.83,685.56C313.15,686.87 322.00,688.35 327.50,688.84C333.00,689.32 340.88,689.77 345.00,689.83zM382.48,678.68C383.04,678.49 384.01,677.33 384.63,676.09C385.26,674.85 386.32,668.06 387.00,661.01C387.68,653.96 387.96,647.75 387.63,647.21C387.30,646.68 383.09,645.93 378.26,645.54C373.44,645.16 362.30,643.77 353.50,642.47C344.70,641.16 329.42,639.18 319.55,638.08C309.68,636.97 301.35,636.31 301.05,636.61C300.75,636.92 301.40,637.82 302.50,638.63C303.60,639.44 312.60,644.31 322.50,649.44C333.47,655.14 344.60,660.09 351.00,662.13C356.91,664.01 363.68,666.97 366.50,668.90C369.25,670.78 373.74,673.83 376.48,675.67C379.23,677.51 381.93,678.86 382.48,678.68zM419.85,679.00C420.32,679.00 422.45,677.73 424.60,676.17C426.74,674.61 429.12,672.58 429.87,671.67C430.63,670.75 430.85,670.00 430.36,670.00C429.87,670.00 427.12,671.59 424.24,673.53C421.36,675.47 419.00,677.49 419.00,678.03C419.00,678.56 419.38,679.00 419.85,679.00zM409.75,668.90C411.81,667.66 416.91,664.47 421.09,661.83C425.26,659.18 429.54,656.04 430.59,654.85C432.50,652.69 432.50,652.69 429.00,653.33C427.07,653.68 421.71,655.89 417.07,658.23C412.44,660.58 407.77,663.70 406.69,665.17C405.56,666.70 405.00,668.55 405.36,669.50C405.94,671.00 406.38,670.94 409.75,668.90zM186.75,668.00C185.51,667.99 181.12,666.28 177.00,664.19C172.88,662.10 168.24,659.56 166.71,658.55C165.17,657.54 162.86,654.87 161.58,652.61C160.29,650.35 158.47,645.28 157.53,641.35C156.60,637.42 155.98,633.18 156.17,631.94C156.45,630.02 157.19,630.67 160.91,636.09C163.33,639.61 170.64,647.80 177.16,654.28C183.67,660.76 189.00,666.50 189.00,667.03C189.00,667.57 187.99,668.00 186.75,668.00zM297.00,662.91C299.31,662.93 299.36,662.83 297.72,661.59C296.75,660.85 292.70,659.11 288.72,657.72C284.75,656.34 280.49,654.90 279.26,654.54C277.56,654.03 277.15,654.22 277.56,655.29C277.86,656.08 279.09,657.25 280.30,657.89C281.51,658.54 285.20,659.93 288.50,660.98C291.80,662.03 295.62,662.90 297.00,662.91zM405.25,658.18C405.94,657.60 410.21,653.48 414.75,649.03C419.29,644.59 423.00,640.74 423.00,640.49C423.00,640.24 420.86,640.88 418.25,641.91C415.64,642.95 411.63,644.55 409.35,645.47C406.76,646.51 404.98,647.96 404.61,649.32C404.29,650.52 404.02,653.24 404.01,655.37C404.00,658.37 404.28,659.01 405.25,658.18zM532.58,653.00C532.26,653.00 532.00,652.54 532.00,651.97C532.00,651.40 535.49,647.41 539.75,643.11C544.01,638.81 548.51,634.76 549.75,634.11C550.99,633.46 552.00,633.33 552.00,633.82C552.00,634.31 550.42,636.78 548.50,639.30C546.57,641.82 542.33,645.94 539.07,648.44C535.82,650.95 532.89,653.00 532.58,653.00zM245.25,647.96C245.66,647.98 246.00,647.57 246.00,647.05C246.00,646.53 244.51,644.97 242.70,643.58C240.88,642.20 237.73,640.37 235.70,639.52C232.30,638.10 232.00,637.65 232.00,633.93C232.00,631.70 232.94,625.33 234.10,619.77C235.25,614.21 238.00,603.99 240.20,597.08C242.41,590.16 246.19,580.45 248.60,575.50C251.01,570.55 253.90,565.02 255.01,563.20C256.12,561.39 257.37,560.11 257.78,560.36C258.19,560.62 258.22,556.70 257.85,551.66C257.39,545.40 257.56,541.71 258.36,540.00C259.36,537.90 260.18,537.53 263.52,537.67C265.71,537.77 268.60,538.00 269.95,538.17C272.32,538.49 272.45,538.18 273.61,530.00C274.27,525.33 275.50,519.48 276.33,517.00C277.16,514.52 279.03,509.19 280.49,505.14C282.76,498.85 282.98,497.36 281.97,494.92C281.32,493.36 279.15,490.85 277.14,489.35C275.14,487.85 263.88,476.92 252.12,465.06C240.36,453.20 226.70,438.64 221.76,432.70C216.82,426.77 212.30,422.07 211.72,422.26C211.14,422.45 208.82,425.62 206.58,429.30C204.34,432.98 200.48,438.51 198.01,441.60C195.55,444.69 190.31,449.76 186.38,452.86C182.46,455.96 175.59,461.15 171.12,464.39C165.91,468.18 163.00,470.96 163.00,472.17C163.00,473.21 165.24,478.48 167.99,483.88C170.73,489.28 174.07,496.61 175.41,500.16C176.75,503.72 178.64,510.20 179.62,514.56C181.15,521.38 181.41,527.95 181.49,561.00C181.57,599.50 181.57,599.50 184.28,609.81C185.78,615.48 188.16,622.58 189.59,625.60C191.01,628.61 193.27,631.79 194.61,632.67C196.40,633.84 199.18,634.22 205.01,634.09C210.57,633.97 215.47,634.60 221.24,636.16C225.78,637.39 229.78,638.79 230.12,639.29C230.45,639.78 233.83,641.92 237.62,644.05C241.40,646.18 244.84,647.93 245.25,647.96zM330.00,628.82C334.08,628.93 334.33,628.80 332.63,627.52C331.61,626.75 325.40,623.99 318.85,621.40C312.29,618.81 306.68,616.28 306.37,615.79C306.05,615.28 309.15,615.15 313.66,615.49C317.97,615.82 326.00,616.55 331.50,617.13C337.00,617.70 351.39,620.14 363.48,622.55C377.68,625.39 385.80,626.60 386.43,625.97C387.04,625.36 387.05,624.66 386.45,624.07C385.93,623.56 383.08,622.19 380.11,621.03C377.15,619.87 368.63,617.56 361.17,615.89C353.71,614.22 335.89,610.87 321.56,608.44C307.23,606.00 291.90,603.55 287.50,602.99C283.10,602.43 275.80,602.26 271.27,602.62C266.75,602.98 263.26,603.61 263.52,604.03C263.78,604.45 268.31,606.46 273.59,608.51C280.07,611.02 284.05,613.21 285.84,615.26C287.30,616.93 291.20,619.53 294.50,621.03C297.80,622.53 304.77,624.71 310.00,625.87C315.23,627.03 320.85,628.14 322.50,628.34C324.15,628.54 327.52,628.75 330.00,628.82zM561.63,626.00C561.29,626.00 561.00,625.64 561.00,625.20C561.00,624.77 563.07,621.05 565.59,616.95C568.12,612.85 572.72,606.40 575.83,602.60C578.93,598.81 585.07,592.70 589.48,589.02C593.89,585.34 600.59,579.98 604.37,577.12C608.15,574.25 611.46,572.13 611.74,572.40C612.01,572.68 610.77,575.28 608.97,578.20C607.18,581.11 603.14,586.66 599.98,590.52C596.83,594.38 591.16,600.21 587.38,603.49C583.59,606.76 576.40,613.17 571.38,617.72C566.37,622.27 561.98,626.00 561.63,626.00zM402.58,616.75C409.68,616.53 411.10,616.16 414.34,613.69C416.36,612.15 418.91,609.13 420.01,606.98C421.10,604.84 422.00,602.15 422.00,601.01C422.00,599.88 421.11,596.42 420.03,593.33C418.94,590.24 417.36,586.96 416.53,586.03C415.69,585.10 415.00,583.82 415.00,583.19C415.00,582.55 417.29,580.87 420.09,579.45C422.89,578.04 429.74,575.10 435.30,572.93C440.87,570.76 448.82,568.04 452.96,566.87C457.11,565.71 463.65,563.19 467.50,561.27C471.35,559.35 475.34,557.04 476.36,556.14C477.38,555.24 479.10,552.75 480.19,550.62C481.90,547.28 482.37,546.94 483.59,548.16C484.45,549.02 485.13,552.26 485.33,556.54C485.51,560.37 487.08,570.02 488.82,578.00C490.56,585.98 492.46,594.19 493.04,596.25C493.85,599.13 494.61,600.00 496.30,600.00C497.51,600.00 502.68,601.15 507.80,602.55C513.99,604.25 518.98,605.00 522.76,604.80C527.91,604.53 528.63,604.20 530.64,601.21C531.86,599.40 534.07,594.75 535.54,590.89C537.02,587.03 539.31,579.96 540.64,575.18C542.33,569.10 543.34,561.86 544.01,551.00C544.62,541.25 545.73,532.79 547.00,528.20C548.12,524.19 551.94,515.19 555.49,508.20C559.04,501.22 563.14,493.46 564.61,490.97C567.27,486.44 567.27,486.44 563.35,479.47C559.48,472.59 559.28,472.43 548.62,466.77C542.68,463.62 535.57,459.39 532.82,457.37C530.07,455.35 525.68,451.13 523.07,447.98C520.45,444.84 516.17,438.83 513.55,434.63C510.93,430.43 508.20,427.00 507.48,427.00C506.76,427.00 504.95,430.26 503.46,434.25C501.97,438.24 498.49,445.87 495.73,451.20C492.98,456.54 487.36,465.31 483.24,470.70C479.13,476.09 474.29,483.65 472.49,487.50C470.68,491.35 468.67,497.12 468.02,500.33C467.13,504.69 467.10,507.76 467.92,512.44C468.52,515.89 469.94,521.36 471.07,524.61C472.25,527.96 473.49,535.02 473.95,541.00C474.74,551.02 474.68,551.58 472.64,553.26C471.46,554.23 466.96,556.82 462.63,559.01C458.31,561.20 454.15,563.00 453.38,563.00C452.62,563.00 452.00,562.49 452.00,561.87C452.00,561.24 455.04,555.50 458.75,549.12C465.45,537.58 465.50,537.45 465.50,530.00C465.50,525.77 464.69,519.56 463.64,515.75C462.24,510.69 461.34,509.00 460.02,509.00C459.06,509.00 457.08,509.93 455.63,511.07C454.19,512.21 453.00,512.97 453.00,512.76C453.00,512.55 454.35,508.38 456.00,503.50C457.65,498.62 459.00,494.05 459.00,493.34C459.00,492.56 458.33,492.30 457.25,492.68C456.29,493.02 453.70,494.09 451.50,495.06C449.30,496.03 446.53,497.88 445.35,499.16C444.17,500.45 441.82,504.79 440.12,508.81C438.43,512.83 435.60,518.12 433.85,520.56C432.10,523.00 430.48,525.00 430.27,525.00C430.05,525.00 430.01,520.39 430.19,514.75C430.50,504.50 430.50,504.50 415.43,504.22C402.04,503.98 400.18,504.15 398.76,505.72C397.89,506.70 396.57,509.98 395.84,513.00C394.64,517.91 394.20,518.53 391.67,518.82C388.84,519.15 388.84,519.15 389.51,513.74C390.12,508.88 389.93,508.03 387.68,505.42C385.16,502.50 385.16,502.50 371.83,502.54C362.74,502.57 356.01,503.16 350.69,504.38C346.10,505.43 342.64,506.77 342.31,507.62C342.01,508.42 342.29,511.81 342.95,515.14C343.60,518.47 343.84,521.49 343.47,521.85C343.10,522.21 341.14,520.64 339.11,518.36C337.08,516.08 333.42,510.46 330.97,505.86C328.44,501.10 324.34,495.35 321.47,492.50C318.69,489.75 313.68,486.04 310.32,484.25C306.97,482.46 303.27,481.00 302.11,481.00C300.95,481.00 300.00,481.37 300.00,481.81C300.00,482.26 301.39,483.95 303.09,485.56C304.79,487.18 306.81,489.72 307.59,491.20C308.37,492.69 309.00,494.06 309.00,494.26C309.00,494.46 306.39,494.44 303.20,494.21C298.05,493.84 297.05,494.09 294.22,496.47C292.46,497.95 289.67,502.00 288.01,505.47C285.76,510.19 285.00,513.22 285.00,517.43C285.00,521.03 285.69,524.42 286.91,526.79C287.96,528.83 290.33,531.88 292.16,533.57C294.00,535.26 296.67,537.36 298.09,538.24C299.52,539.12 302.44,540.35 304.59,540.97C307.49,541.81 309.72,543.63 313.25,548.01C315.86,551.26 318.00,554.32 318.00,554.81C318.00,555.32 315.69,555.34 312.53,554.84C309.51,554.37 301.75,552.39 295.28,550.45C288.80,548.51 279.74,545.14 275.15,542.96C270.56,540.78 266.22,539.00 265.51,539.00C264.80,539.00 263.95,539.69 263.63,540.52C263.31,541.36 263.86,542.86 264.86,543.86C265.86,544.86 270.24,547.16 274.59,548.98C278.94,550.79 288.80,554.44 296.50,557.09C304.20,559.74 323.80,565.71 340.05,570.37C356.30,575.03 372.50,579.33 376.05,579.93C379.60,580.53 383.96,581.26 385.75,581.56C387.54,581.85 389.00,582.63 389.00,583.30C388.99,583.96 387.93,585.82 386.64,587.43C384.30,590.36 384.30,590.36 368.90,588.11C360.43,586.87 346.72,584.54 338.43,582.93C330.15,581.32 313.52,577.51 301.49,574.46C289.46,571.42 278.91,569.07 278.06,569.25C277.10,569.45 278.38,570.68 281.38,572.46C284.06,574.04 289.05,576.36 292.46,577.59C295.87,578.83 309.20,582.10 322.08,584.86C334.96,587.62 351.35,590.61 358.50,591.50C365.65,592.40 373.98,593.22 377.00,593.33C381.30,593.48 382.42,593.85 382.15,595.01C381.96,595.83 381.56,599.02 381.27,602.09C380.79,607.21 380.99,607.96 383.63,610.89C385.21,612.64 388.30,614.74 390.50,615.55C393.07,616.49 397.38,616.92 402.58,616.75zM394.69,603.85C394.04,603.77 392.36,603.52 390.96,603.30C389.57,603.09 387.82,601.95 387.09,600.78C385.94,598.93 386.01,598.47 387.62,597.29C388.65,596.54 390.18,594.48 391.03,592.71C392.35,589.97 393.05,589.54 395.79,589.75C398.09,589.94 399.00,589.58 399.00,588.50C399.00,587.68 399.72,587.00 400.61,587.00C401.62,587.00 402.00,587.55 401.64,588.50C401.20,589.65 401.85,590.00 404.45,590.00C406.31,590.00 408.04,589.44 408.29,588.75C408.58,587.92 409.80,588.50 411.89,590.46C413.63,592.09 415.56,595.14 416.19,597.24C417.00,599.95 417.03,601.37 416.27,602.13C415.65,602.75 413.90,602.92 412.16,602.53C409.81,602.02 409.05,601.25 408.81,599.18C408.59,597.25 407.85,596.41 406.18,596.17C404.52,595.94 403.70,596.43 403.32,597.89C403.03,599.01 401.23,600.85 399.34,601.96C397.44,603.08 395.35,603.93 394.69,603.85zM436.03,601.50C438.79,601.12 443.32,600.21 446.09,599.48C448.86,598.75 452.26,597.40 453.65,596.49C455.04,595.58 456.00,594.67 455.79,594.46C455.58,594.25 451.61,594.99 446.96,596.10C442.30,597.21 436.81,598.56 434.75,599.10C432.69,599.64 431.00,600.55 431.00,601.13C431.00,601.82 432.73,601.95 436.03,601.50zM306.00,594.84C310.50,594.84 310.50,594.84 307.00,593.30C305.07,592.46 299.00,590.96 293.50,589.97C288.00,588.97 283.35,588.31 283.17,588.50C282.98,588.69 283.88,589.41 285.16,590.11C286.45,590.81 290.65,592.16 294.50,593.11C298.35,594.07 303.52,594.85 306.00,594.84zM422.57,589.00C424.54,589.00 431.17,587.86 437.32,586.46C443.47,585.07 451.88,582.80 456.00,581.43C460.12,580.06 466.61,577.26 470.42,575.22C474.23,573.17 478.00,570.47 478.81,569.22C480.26,566.98 480.24,566.96 477.42,568.03C475.85,568.63 474.10,569.48 473.53,569.93C472.96,570.38 467.93,572.57 462.34,574.79C456.76,577.02 445.06,580.50 436.34,582.52C427.63,584.54 420.16,586.40 419.75,586.66C419.34,586.91 419.00,587.54 419.00,588.06C419.00,588.58 420.61,589.00 422.57,589.00zM101.14,586.00C101.62,586.00 102.00,585.11 102.00,584.01C102.00,582.92 100.23,577.41 98.06,571.76C95.90,566.12 90.39,552.44 85.81,541.37C81.24,530.30 76.79,520.21 75.93,518.94C74.73,517.20 74.23,516.99 73.83,518.07C73.55,518.86 73.92,523.10 74.65,527.50C75.39,531.90 77.10,539.11 78.46,543.52C79.82,547.94 83.44,556.68 86.52,562.94C89.59,569.21 93.95,576.96 96.20,580.17C98.45,583.37 100.67,586.00 101.14,586.00zM401.80,578.23C397.57,578.40 393.74,578.45 393.30,578.35C392.86,578.26 391.15,577.84 389.50,577.43C386.50,576.68 386.50,576.68 390.50,575.90C392.70,575.47 396.53,575.09 399.00,575.06C401.48,575.03 406.65,574.10 410.50,573.00C414.35,571.90 418.98,571.00 420.81,571.00C422.63,571.00 423.86,571.41 423.55,571.91C423.24,572.42 419.95,573.97 416.24,575.38C411.68,577.10 407.01,578.02 401.80,578.23zM153.84,550.00C153.61,550.00 151.56,548.09 149.29,545.75C147.02,543.41 142.03,537.30 138.19,532.17C134.36,527.03 128.86,518.58 125.98,513.38C123.10,508.18 121.02,503.65 121.35,503.32C121.68,502.99 124.52,504.69 127.65,507.11C130.79,509.52 136.14,514.77 139.55,518.76C142.96,522.75 147.39,529.37 149.39,533.48C151.39,537.58 153.31,542.98 153.65,545.47C153.99,547.96 154.08,550.00 153.84,550.00zM562.75,539.71C561.24,539.99 560.00,539.79 560.00,539.25C560.00,538.71 561.01,536.97 562.25,535.38C563.49,533.80 565.75,531.43 567.29,530.13C568.82,528.82 576.38,523.54 584.08,518.38C591.78,513.22 598.32,509.00 598.61,509.00C598.90,509.00 598.86,509.86 598.53,510.92C598.19,511.97 598.33,513.09 598.83,513.40C599.34,513.71 601.57,512.64 603.80,511.03C606.02,509.42 610.14,505.34 612.96,501.96C615.77,498.58 619.57,492.82 621.41,489.16C623.25,485.50 625.54,479.80 626.51,476.50C627.47,473.20 628.60,469.38 629.02,468.00C629.76,465.54 629.80,465.56 631.39,469.22C632.27,471.26 633.00,475.54 633.00,478.72C633.00,481.90 631.86,488.73 630.48,493.91C629.09,499.08 626.74,505.55 625.25,508.28C623.77,511.01 621.18,514.29 619.50,515.57C617.82,516.85 610.83,520.60 603.97,523.91C597.11,527.21 585.65,532.00 578.50,534.55C571.35,537.10 564.26,539.42 562.75,539.71zM393.72,538.97C391.95,538.95 389.60,538.44 388.50,537.84C387.40,537.23 385.26,535.58 383.75,534.18C382.24,532.77 381.00,530.68 381.00,529.51C381.00,528.35 381.50,526.90 382.11,526.29C382.88,525.52 384.09,525.48 386.03,526.16C387.57,526.70 390.34,527.00 392.17,526.82C394.48,526.60 395.80,525.81 396.49,524.25C397.03,523.01 397.71,522.00 398.00,522.00C398.29,522.00 399.75,523.14 401.26,524.54C403.01,526.17 404.00,528.11 404.00,529.94C404.00,531.95 402.96,533.70 400.47,535.90C398.05,538.02 395.91,538.99 393.72,538.97zM95.56,521.00C95.85,521.00 95.79,519.31 95.42,517.25C95.06,515.19 93.48,509.45 91.92,504.50C90.36,499.55 88.39,491.23 87.54,486.00C86.70,480.77 86.01,472.88 86.00,468.46C86.00,464.04 86.69,457.74 87.53,454.46C88.38,451.18 91.74,443.10 95.00,436.50C100.93,424.50 100.93,424.50 99.87,415.50C99.29,410.55 98.99,402.23 99.21,397.00C99.55,388.81 100.04,386.58 102.83,380.80C104.99,376.31 108.43,371.69 113.23,366.80C120.40,359.50 120.40,359.50 121.15,365.84C121.56,369.33 122.62,374.35 123.50,377.01C124.39,379.67 125.74,382.37 126.51,383.01C127.28,383.65 128.40,383.87 128.99,383.51C129.58,383.14 131.58,384.18 133.43,385.81C135.29,387.44 137.30,388.93 137.91,389.14C138.61,389.37 139.13,393.75 139.32,401.00C139.57,410.20 140.14,414.00 142.21,420.00C143.62,424.12 145.56,429.41 146.50,431.75C147.44,434.09 148.77,436.00 149.45,436.00C150.13,436.00 151.50,435.10 152.50,434.00C153.50,432.90 155.11,432.00 156.09,432.00C157.29,432.00 157.97,432.90 158.18,434.75C158.49,437.40 158.69,437.49 163.85,437.27C167.56,437.12 171.41,435.98 176.45,433.55C180.45,431.63 186.05,427.96 188.90,425.40C191.75,422.84 196.08,418.14 198.53,414.96C200.98,411.78 204.77,405.59 206.96,401.20C209.15,396.80 212.30,388.39 213.96,382.49C215.61,376.60 217.42,368.12 217.98,363.66C218.54,359.20 219.00,353.10 219.00,350.10C219.00,346.44 218.46,344.06 217.35,342.83C216.43,341.82 214.81,341.00 213.73,341.00C212.65,341.00 210.16,339.60 208.21,337.88C204.79,334.88 204.38,334.78 197.47,335.22C192.86,335.52 188.54,336.51 185.40,337.99C182.27,339.46 177.13,343.73 171.21,349.77C166.09,354.98 161.75,359.08 161.56,358.87C161.37,358.67 160.52,356.83 159.67,354.79C158.80,352.67 156.49,349.96 154.32,348.49C152.22,347.06 146.45,343.51 141.50,340.59C134.18,336.28 132.28,334.66 131.31,331.90C130.65,330.03 130.09,327.06 130.06,325.31C130.03,323.55 129.55,321.84 129.00,321.50C128.45,321.16 127.19,321.47 126.19,322.19C125.19,322.91 121.16,327.16 117.24,331.63C113.31,336.10 107.81,342.79 105.01,346.49C102.21,350.19 98.36,356.30 96.47,360.07C94.57,363.83 92.13,370.20 91.05,374.21C89.97,378.22 88.37,386.68 87.49,393.00C86.62,399.32 85.06,411.09 84.03,419.15C82.48,431.22 81.60,434.91 79.03,440.10C77.31,443.56 73.42,449.43 70.37,453.15C67.02,457.26 63.10,463.77 60.43,469.71C58.00,475.09 56.01,480.98 56.00,482.80C56.00,484.61 56.66,487.38 57.48,488.95C58.29,490.52 60.48,492.75 62.34,493.90C64.21,495.06 66.06,496.00 66.46,496.00C66.85,496.00 66.86,492.20 66.48,487.56C65.92,480.83 66.13,477.99 67.53,473.53C68.50,470.45 69.64,467.72 70.07,467.45C70.50,467.19 71.35,469.35 71.95,472.26C72.59,475.36 75.74,482.33 79.52,489.03C83.08,495.34 86.51,502.07 87.14,504.00C87.76,505.93 89.79,510.54 91.65,514.25C93.51,517.96 95.26,521.00 95.56,521.00zM347.00,491.33C347.82,490.95 356.80,490.55 366.93,490.44C384.11,490.25 385.42,490.10 386.08,488.31C386.47,487.25 387.59,479.21 388.57,470.44C389.55,461.67 390.04,453.28 389.66,451.78C389.29,450.28 388.12,448.60 387.07,448.04C385.68,447.30 382.30,447.58 374.83,449.08C369.15,450.22 361.80,452.43 358.50,454.01C355.20,455.58 349.25,459.39 345.28,462.48C339.69,466.83 337.84,468.92 337.04,471.80C336.47,473.83 336.01,476.50 336.01,477.73C336.00,478.96 336.74,481.82 337.65,484.09C338.63,486.52 340.57,488.99 342.40,490.11C344.11,491.15 346.18,491.70 347.00,491.33zM417.78,490.88C420.69,490.95 424.53,490.39 426.33,489.64C428.12,488.89 430.80,486.84 432.27,485.09C433.75,483.34 435.63,479.62 436.46,476.82C437.29,474.02 438.26,468.88 438.62,465.40C439.05,461.16 438.85,458.05 437.99,455.99C437.29,454.29 435.41,452.23 433.81,451.40C432.22,450.58 425.58,449.17 419.06,448.26C408.10,446.75 407.03,446.75 404.72,448.26C403.35,449.16 401.21,451.99 399.97,454.55C397.95,458.73 397.78,460.23 398.27,469.09C398.66,476.29 399.39,480.17 400.94,483.38C402.28,486.14 404.09,488.18 405.79,488.84C407.28,489.42 409.40,490.09 410.50,490.33C411.60,490.57 414.88,490.82 417.78,490.88zM449.16,474.00C449.65,474.00 453.30,472.37 457.27,470.38C461.25,468.39 468.16,464.38 472.63,461.48C478.75,457.50 481.88,454.62 485.36,449.75C487.90,446.19 491.36,440.32 493.05,436.70C494.75,433.08 496.39,427.62 496.71,424.56C497.08,420.95 496.91,419.00 496.22,419.00C495.64,419.00 492.67,421.28 489.62,424.07C486.57,426.85 481.64,432.59 478.66,436.82C475.68,441.04 472.12,445.54 470.74,446.81C468.93,448.49 465.97,449.49 460.01,450.44C453.71,451.45 451.21,452.33 449.33,454.22C446.97,456.58 446.90,457.02 447.57,465.34C447.96,470.10 448.67,474.00 449.16,474.00zM327.35,448.92C328.36,448.96 330.53,448.21 332.18,447.25C333.82,446.29 337.12,442.56 339.52,438.96C341.91,435.37 344.80,431.58 345.94,430.55C347.73,428.93 348.35,428.85 350.41,429.95C351.72,430.65 353.19,432.12 353.68,433.21C354.44,434.91 355.74,435.23 362.91,435.52C367.50,435.70 373.78,435.45 376.88,434.95C381.67,434.19 383.12,433.40 386.67,429.67C389.41,426.79 391.38,423.47 392.42,419.96C393.29,417.03 394.00,412.89 394.00,410.76C394.00,407.71 393.35,406.29 390.91,404.06C387.81,401.24 387.81,401.24 390.77,397.16C392.39,394.92 394.29,391.71 394.98,390.04C395.68,388.37 396.64,387.00 397.12,387.00C397.60,387.00 398.00,387.34 398.01,387.75C398.01,388.16 398.71,394.34 399.54,401.47C400.38,408.60 401.34,415.58 401.68,416.97C402.01,418.36 403.30,421.52 404.54,424.00C405.79,426.48 407.90,429.52 409.24,430.78C410.80,432.23 413.83,433.41 417.59,434.02C420.84,434.55 426.26,434.99 429.64,434.99C435.52,435.00 436.00,434.81 440.82,430.47C443.94,427.66 446.50,424.26 447.55,421.51C449.17,417.26 449.16,416.91 447.30,413.29C446.23,411.20 444.49,408.07 443.44,406.31C442.40,404.56 441.80,402.87 442.12,402.55C442.44,402.23 445.57,402.70 449.07,403.60C453.54,404.74 457.33,405.04 461.74,404.59C466.89,404.06 468.15,404.22 468.63,405.48C468.95,406.32 468.52,408.09 467.66,409.39C466.80,410.70 464.49,412.77 462.53,413.98C460.56,415.20 458.29,417.48 457.48,419.05C456.59,420.76 456.00,424.68 456.00,428.83C456.00,433.34 456.46,436.14 457.32,436.85C458.26,437.63 459.73,437.64 462.48,436.88C464.59,436.30 468.04,434.68 470.15,433.28C472.25,431.89 477.67,425.80 482.19,419.74C486.71,413.69 491.44,406.70 492.70,404.20C494.16,401.33 495.00,397.89 495.00,394.83C495.00,390.18 494.89,390.00 492.14,390.00C490.57,390.00 486.76,391.27 483.69,392.82C478.26,395.56 478.08,395.58 477.80,393.60C477.58,392.08 476.23,391.22 472.50,390.24C469.75,389.52 463.23,387.62 458.00,386.02C452.77,384.43 443.77,381.95 438.00,380.52C432.23,379.09 422.23,376.30 415.79,374.31C406.11,371.32 403.81,370.92 402.54,371.97C401.69,372.67 401.00,373.86 401.00,374.62C401.00,375.38 400.43,376.00 399.73,376.00C399.03,376.00 396.89,374.73 394.98,373.17C393.07,371.62 390.77,370.08 389.89,369.76C389.00,369.43 382.19,370.44 374.75,371.98C367.31,373.53 351.43,378.04 339.45,381.99C322.78,387.50 315.62,389.38 308.88,390.01C304.03,390.47 299.63,391.11 299.08,391.45C298.53,391.79 298.34,392.72 298.65,393.53C298.96,394.34 298.71,395.00 298.09,395.00C297.47,395.00 293.49,393.26 289.23,391.13C284.98,389.01 277.54,386.01 272.71,384.47C266.30,382.44 263.62,381.98 262.82,382.78C262.01,383.59 262.05,384.70 262.96,386.89C263.64,388.55 266.52,392.07 269.35,394.72C272.18,397.36 276.52,400.51 279.00,401.71C281.48,402.91 286.59,405.27 290.36,406.95C295.94,409.43 298.57,410.00 304.39,410.00C308.34,410.00 313.80,409.38 316.53,408.61C319.26,407.85 324.99,405.98 329.26,404.46C333.53,402.94 337.30,401.96 337.63,402.29C337.95,402.62 336.58,404.90 334.57,407.35C332.56,409.80 327.67,414.05 323.71,416.79C319.74,419.53 315.25,423.02 313.73,424.55C312.21,426.07 310.69,428.38 310.36,429.69C310.03,431.00 310.05,433.50 310.40,435.25C310.75,437.00 312.04,439.89 313.26,441.67C314.48,443.45 317.06,445.58 318.99,446.39C320.92,447.20 323.18,448.08 324.00,448.35C324.82,448.62 326.33,448.88 327.35,448.92zM298.11,442.96C299.43,442.99 299.95,441.02 300.92,432.35C301.90,423.65 301.88,421.54 300.81,420.86C300.09,420.40 299.01,420.02 298.42,420.02C297.83,420.01 291.53,418.41 284.42,416.47C277.31,414.53 270.71,412.70 269.75,412.41C268.48,412.01 268.00,412.42 268.00,413.92C268.00,415.15 272.33,420.65 278.75,427.58C284.66,433.96 291.07,440.02 293.00,441.05C294.93,442.07 297.23,442.93 298.11,442.96zM608.79,427.25C608.46,429.38 608.36,429.34 606.84,426.50C605.96,424.85 604.74,421.12 604.12,418.20C603.50,415.29 603.04,411.46 603.08,409.70C603.16,406.50 603.16,406.50 605.04,410.50C606.08,412.70 607.42,416.86 608.03,419.75C608.64,422.63 608.98,426.01 608.79,427.25zM303.35,354.90C301.78,354.84 299.02,354.44 297.21,354.02C295.40,353.59 293.05,352.45 291.98,351.49C290.92,350.52 289.79,348.92 289.47,347.92C289.16,346.92 289.60,344.74 290.47,343.07C291.33,341.40 293.35,339.35 294.97,338.52C296.58,337.68 298.37,337.00 298.95,337.00C299.53,337.00 300.00,338.09 300.00,339.43C300.00,340.76 300.72,342.57 301.59,343.45C303.05,344.91 303.47,344.87 306.46,343.02C308.26,341.91 310.40,341.00 311.21,341.00C312.03,341.00 313.46,341.85 314.40,342.89C315.94,344.59 315.97,345.13 314.68,348.22C313.76,350.43 311.98,352.25 309.72,353.33C307.78,354.25 304.92,354.95 303.35,354.90zM482.25,274.93C481.29,274.88 477.42,273.78 473.66,272.46C469.90,271.15 464.90,268.85 462.55,267.37C460.19,265.88 457.71,263.77 457.04,262.69C455.87,260.82 456.03,260.74 460.32,261.23C462.81,261.51 467.69,263.07 471.17,264.71C474.65,266.34 478.96,268.92 480.75,270.43C482.54,271.94 484.00,273.59 484.00,274.09C484.00,274.59 483.21,274.97 482.25,274.93zM277.25,251.05C269.99,254.92 269.99,254.92 267.43,249.85C266.01,247.07 262.93,242.92 260.57,240.64C258.21,238.36 253.34,235.00 249.74,233.17C246.14,231.34 241.02,229.24 238.35,228.51C233.50,227.18 233.50,227.18 239.70,227.09C243.11,227.04 248.29,227.49 251.20,228.09C254.12,228.70 260.55,231.16 265.50,233.56C272.23,236.83 276.90,238.32 284.00,239.46C289.23,240.30 294.94,240.99 296.69,241.00C298.45,241.00 300.13,241.40 300.43,241.89C300.74,242.38 297.28,243.77 292.74,244.98C288.21,246.18 281.24,248.91 277.25,251.05zM388.40,252.00C389.09,252.00 390.58,250.99 391.71,249.75C392.85,248.51 394.68,245.70 395.78,243.50C396.88,241.30 398.50,237.06 399.39,234.07C400.28,231.08 401.00,227.14 401.00,225.32C401.00,223.49 400.55,222.00 400.00,222.00C399.45,222.00 398.18,222.82 397.18,223.82C396.17,224.83 393.06,229.67 390.25,234.57C387.45,239.48 384.86,244.67 384.50,246.11C384.06,247.88 384.38,249.24 385.50,250.36C386.40,251.26 387.71,252.00 388.40,252.00zM412.93,188.29C410.49,188.54 406.93,188.55 405.00,188.31C402.47,187.99 400.47,186.71 397.75,183.68C395.69,181.38 394.00,178.94 394.00,178.25C394.00,177.56 394.11,177.00 394.25,177.00C394.39,177.00 398.03,177.68 402.34,178.50C406.65,179.33 412.51,180.00 415.37,180.00C418.49,180.00 421.46,179.37 422.83,178.41C424.63,177.15 424.85,176.53 423.93,175.41C423.21,174.55 420.86,174.00 417.94,174.00C415.30,174.00 412.01,173.57 410.63,173.05C409.26,172.53 403.57,171.79 398.00,171.40C390.57,170.89 387.27,170.23 385.68,168.94C384.48,167.97 383.77,166.90 384.11,166.56C384.44,166.23 392.32,166.42 401.61,167.00C410.90,167.58 421.20,168.79 424.50,169.70C427.80,170.62 430.68,171.50 430.90,171.67C431.12,171.83 430.19,172.85 428.83,173.92C427.46,175.00 425.31,177.81 424.06,180.19C422.80,182.56 420.77,185.25 419.56,186.16C418.35,187.08 415.36,188.03 412.93,188.29zM379.25,186.95C377.74,186.93 374.42,185.82 371.88,184.50C369.33,183.17 366.09,180.71 364.67,179.02C363.24,177.32 361.78,174.27 361.42,172.22C361.06,170.17 360.14,166.05 359.38,163.05C358.63,160.06 357.59,157.19 357.09,156.69C356.58,156.18 355.12,155.25 353.83,154.61C351.80,153.59 351.41,152.45 350.79,145.67C350.38,141.13 350.49,136.83 351.07,135.32C352.03,132.80 352.10,132.78 354.06,134.55C355.16,135.55 357.02,137.97 358.20,139.93C359.37,141.90 361.66,144.76 363.29,146.31C365.83,148.72 366.17,149.64 365.69,152.81C365.38,154.84 364.56,159.08 363.86,162.24C362.69,167.53 362.75,168.19 364.59,170.74C365.69,172.26 369.44,174.89 372.93,176.58C376.43,178.28 379.89,180.50 380.64,181.52C381.39,182.55 382.00,184.20 382.00,185.19C382.00,186.51 381.25,186.99 379.25,186.95zM416.07,162.94C415.76,162.91 413.93,162.01 412.02,160.94C410.10,159.87 407.12,159.00 405.40,159.00C403.39,159.00 401.37,158.10 399.75,156.48C398.36,155.09 397.00,152.76 396.72,151.29C396.44,149.83 396.68,147.60 397.26,146.33C397.84,145.07 399.40,143.31 400.74,142.43C402.08,141.56 403.45,141.12 403.80,141.46C404.14,141.81 403.15,143.10 401.60,144.34C399.80,145.78 398.91,147.30 399.15,148.55C399.48,150.24 400.40,150.51 406.02,150.54C410.30,150.57 413.52,151.18 415.50,152.33C418.37,154.00 418.73,153.99 424.00,152.11C429.50,150.14 429.50,150.14 429.83,152.67C430.03,154.26 429.33,156.09 427.95,157.55C426.74,158.84 423.70,160.60 421.20,161.45C418.69,162.30 416.39,162.97 416.07,162.94zM436.06,128.94C438.02,128.97 440.43,128.41 441.42,127.68C442.41,126.96 443.06,125.53 442.86,124.52C442.66,123.50 441.94,122.48 441.26,122.25C440.57,122.02 439.57,122.99 439.04,124.40C438.39,126.11 437.56,126.77 436.53,126.37C435.69,126.05 435.00,125.36 435.00,124.83C435.00,124.30 433.57,124.01 431.83,124.19C430.08,124.36 428.47,125.06 428.24,125.75C428.02,126.44 428.88,127.42 430.17,127.94C431.45,128.45 434.10,128.90 436.06,128.94zM403.17,125.71C400.10,126.96 400.00,126.92 400.00,124.45C400.00,122.47 399.20,121.56 396.46,120.42C394.51,119.61 393.20,118.48 393.55,117.93C393.89,117.37 393.63,116.26 392.96,115.46C392.30,114.66 391.18,114.00 390.47,114.00C389.69,114.00 389.39,114.76 389.70,115.95C390.09,117.44 389.57,118.07 387.56,118.57C385.74,119.03 384.33,118.71 383.02,117.52C381.98,116.58 380.65,116.10 380.06,116.46C379.48,116.82 379.00,117.72 379.00,118.46C379.00,119.20 380.42,120.30 382.15,120.90C383.88,121.51 386.89,122.00 388.84,122.00C392.17,122.00 392.27,122.09 390.44,123.47C389.37,124.28 386.62,124.95 384.32,124.97C382.01,124.99 379.00,124.57 377.62,124.04C376.24,123.52 373.28,121.44 371.05,119.43C368.82,117.41 367.00,115.29 367.00,114.70C367.00,114.11 366.06,112.63 364.92,111.42C363.00,109.37 362.96,108.99 364.33,106.35C365.15,104.78 367.10,102.32 368.66,100.88C370.22,99.44 372.75,97.46 374.28,96.49C376.37,95.17 378.24,94.87 381.78,95.31C384.38,95.62 391.00,97.52 396.50,99.53C403.14,101.95 407.42,104.16 409.25,106.10C410.76,107.71 412.00,109.78 412.00,110.70C412.00,111.62 411.07,114.42 409.93,116.93C408.79,119.45 407.51,122.16 407.09,122.96C406.67,123.76 404.91,125.00 403.17,125.71zM325.81,100.98C325.99,100.51 325.37,98.96 324.44,97.55C323.51,96.13 321.65,94.70 320.30,94.36C318.96,94.02 317.35,94.25 316.73,94.87C315.90,95.70 316.11,96.40 317.55,97.55C318.62,98.40 320.85,99.72 322.50,100.48C324.15,101.23 325.64,101.46 325.81,100.98zM325.29,63.00C326.01,63.00 329.04,61.54 332.03,59.75C335.02,57.96 337.61,55.77 337.79,54.87C338.00,53.78 337.19,53.08 335.31,52.72C333.78,52.43 331.74,52.61 330.78,53.12C329.82,53.63 327.90,55.72 326.52,57.76C325.13,59.80 324.00,61.81 324.00,62.23C324.00,62.65 324.58,63.00 325.29,63.00zM472.81,57.32C473.07,52.41 472.78,51.33 470.66,49.20C468.94,47.49 467.02,46.72 464.28,46.65C462.07,46.59 459.18,47.30 457.69,48.28C456.24,49.24 454.32,51.41 453.45,53.10C452.57,54.80 452.00,56.34 452.19,56.52C452.37,56.70 454.34,56.36 456.57,55.77C458.80,55.17 461.92,55.01 463.51,55.41C465.10,55.81 467.78,57.68 469.45,59.56C472.50,62.98 472.50,62.98 472.81,57.32zM323.87,53.00C325.15,53.00 326.40,51.49 327.81,48.25C329.19,45.08 329.50,43.37 328.76,43.11C328.15,42.89 326.37,44.14 324.82,45.87C323.27,47.61 322.00,49.92 322.00,51.02C322.00,52.29 322.67,53.00 323.87,53.00zM385.75,46.86C390.47,46.95 394.99,46.34 398.75,45.12C401.91,44.08 408.72,42.25 413.87,41.04C419.02,39.83 424.23,39.09 425.44,39.40C426.65,39.70 429.35,41.11 431.44,42.52C433.53,43.94 435.46,44.88 435.73,44.61C436.00,44.33 435.32,41.50 434.22,38.31C433.12,35.11 431.89,31.71 431.50,30.75C431.08,29.72 431.23,29.00 431.87,29.00C432.46,29.00 435.63,31.62 438.90,34.83C443.82,39.64 444.94,40.33 445.34,38.82C445.60,37.81 445.26,34.63 444.58,31.74C443.90,28.86 442.64,25.15 441.77,23.50C440.90,21.85 439.13,19.51 437.84,18.31C436.55,17.10 433.02,14.99 430.00,13.62C426.97,12.26 421.63,10.62 418.12,10.00C414.17,9.30 411.38,9.22 410.80,9.80C410.22,10.38 412.40,12.53 416.50,15.46C420.15,18.07 422.91,20.42 422.64,20.70C422.36,20.97 418.98,20.47 415.12,19.60C411.26,18.72 405.83,18.00 403.05,18.00C400.27,18.00 398.00,18.45 398.00,19.00C398.00,19.57 394.87,20.03 390.75,20.07C386.76,20.11 382.63,20.48 381.57,20.90C380.16,21.45 382.08,22.23 388.57,23.74C393.48,24.89 400.00,26.77 403.06,27.92C406.12,29.06 409.49,30.63 410.55,31.41C412.34,32.72 412.07,32.99 406.49,35.48C403.19,36.95 397.71,39.07 394.30,40.20C388.10,42.25 388.10,42.25 378.99,40.00C370.01,37.78 369.77,37.77 361.19,39.47C356.41,40.42 350.93,41.85 349.02,42.64C346.24,43.80 345.83,44.29 347.02,45.05C347.83,45.58 351.43,45.77 355.00,45.48C358.57,45.18 365.32,45.34 370.00,45.83C374.68,46.33 381.76,46.79 385.75,46.86zM450.71,47.00C451.23,47.00 452.56,45.99 453.68,44.75C454.79,43.51 455.99,41.69 456.34,40.69C456.70,39.68 456.11,37.18 455.01,35.01C453.92,32.88 452.57,30.85 452.01,30.51C451.37,30.11 451.00,32.18 450.99,36.19C450.98,39.66 450.70,43.51 450.37,44.75C450.04,45.99 450.19,47.00 450.71,47.00zM362.31,32.92C366.05,32.96 371.11,32.50 373.56,31.88C376.00,31.27 378.00,30.42 378.00,30.00C378.00,29.58 376.63,28.67 374.95,27.98C373.27,27.28 369.56,26.72 366.70,26.74C363.84,26.75 359.59,27.54 357.25,28.49C354.91,29.44 353.00,30.58 353.00,31.03C353.00,31.47 353.56,32.06 354.25,32.34C354.94,32.62 358.56,32.88 362.31,32.92z" />

</svg>